%TF.GenerationSoftware,KiCad,Pcbnew,10.0.3*%
%TF.CreationDate,2026-05-23T11:56:39-04:00*%
%TF.ProjectId,usbhub,75736268-7562-42e6-9b69-6361645f7063,1.0*%
%TF.SameCoordinates,Original*%
%TF.FileFunction,Legend,Top*%
%TF.FilePolarity,Positive*%
%FSLAX46Y46*%
G04 Gerber Fmt 4.6, Leading zero omitted, Abs format (unit mm)*
G04 Created by KiCad (PCBNEW 10.0.3) date 2026-05-23 11:56:39*
%MOMM*%
%LPD*%
G01*
G04 APERTURE LIST*
%ADD10C,0.125000*%
%ADD11C,0.150000*%
%ADD12C,0.120000*%
%ADD13C,0.200000*%
%ADD14C,0.127000*%
G04 APERTURE END LIST*
D10*
X148760807Y-85736798D02*
X148760807Y-86343941D01*
X148760807Y-86343941D02*
X148796521Y-86415369D01*
X148796521Y-86415369D02*
X148832236Y-86451084D01*
X148832236Y-86451084D02*
X148903664Y-86486798D01*
X148903664Y-86486798D02*
X149046521Y-86486798D01*
X149046521Y-86486798D02*
X149117950Y-86451084D01*
X149117950Y-86451084D02*
X149153664Y-86415369D01*
X149153664Y-86415369D02*
X149189378Y-86343941D01*
X149189378Y-86343941D02*
X149189378Y-85736798D01*
X149510807Y-86451084D02*
X149617950Y-86486798D01*
X149617950Y-86486798D02*
X149796521Y-86486798D01*
X149796521Y-86486798D02*
X149867950Y-86451084D01*
X149867950Y-86451084D02*
X149903664Y-86415369D01*
X149903664Y-86415369D02*
X149939378Y-86343941D01*
X149939378Y-86343941D02*
X149939378Y-86272512D01*
X149939378Y-86272512D02*
X149903664Y-86201084D01*
X149903664Y-86201084D02*
X149867950Y-86165369D01*
X149867950Y-86165369D02*
X149796521Y-86129655D01*
X149796521Y-86129655D02*
X149653664Y-86093941D01*
X149653664Y-86093941D02*
X149582235Y-86058226D01*
X149582235Y-86058226D02*
X149546521Y-86022512D01*
X149546521Y-86022512D02*
X149510807Y-85951084D01*
X149510807Y-85951084D02*
X149510807Y-85879655D01*
X149510807Y-85879655D02*
X149546521Y-85808226D01*
X149546521Y-85808226D02*
X149582235Y-85772512D01*
X149582235Y-85772512D02*
X149653664Y-85736798D01*
X149653664Y-85736798D02*
X149832235Y-85736798D01*
X149832235Y-85736798D02*
X149939378Y-85772512D01*
X150510807Y-86093941D02*
X150617950Y-86129655D01*
X150617950Y-86129655D02*
X150653664Y-86165369D01*
X150653664Y-86165369D02*
X150689378Y-86236798D01*
X150689378Y-86236798D02*
X150689378Y-86343941D01*
X150689378Y-86343941D02*
X150653664Y-86415369D01*
X150653664Y-86415369D02*
X150617950Y-86451084D01*
X150617950Y-86451084D02*
X150546521Y-86486798D01*
X150546521Y-86486798D02*
X150260807Y-86486798D01*
X150260807Y-86486798D02*
X150260807Y-85736798D01*
X150260807Y-85736798D02*
X150510807Y-85736798D01*
X150510807Y-85736798D02*
X150582236Y-85772512D01*
X150582236Y-85772512D02*
X150617950Y-85808226D01*
X150617950Y-85808226D02*
X150653664Y-85879655D01*
X150653664Y-85879655D02*
X150653664Y-85951084D01*
X150653664Y-85951084D02*
X150617950Y-86022512D01*
X150617950Y-86022512D02*
X150582236Y-86058226D01*
X150582236Y-86058226D02*
X150510807Y-86093941D01*
X150510807Y-86093941D02*
X150260807Y-86093941D01*
X151546522Y-85808226D02*
X151582236Y-85772512D01*
X151582236Y-85772512D02*
X151653665Y-85736798D01*
X151653665Y-85736798D02*
X151832236Y-85736798D01*
X151832236Y-85736798D02*
X151903665Y-85772512D01*
X151903665Y-85772512D02*
X151939379Y-85808226D01*
X151939379Y-85808226D02*
X151975093Y-85879655D01*
X151975093Y-85879655D02*
X151975093Y-85951084D01*
X151975093Y-85951084D02*
X151939379Y-86058226D01*
X151939379Y-86058226D02*
X151510807Y-86486798D01*
X151510807Y-86486798D02*
X151975093Y-86486798D01*
X152296522Y-86415369D02*
X152332236Y-86451084D01*
X152332236Y-86451084D02*
X152296522Y-86486798D01*
X152296522Y-86486798D02*
X152260808Y-86451084D01*
X152260808Y-86451084D02*
X152296522Y-86415369D01*
X152296522Y-86415369D02*
X152296522Y-86486798D01*
X152796522Y-85736798D02*
X152867951Y-85736798D01*
X152867951Y-85736798D02*
X152939379Y-85772512D01*
X152939379Y-85772512D02*
X152975094Y-85808226D01*
X152975094Y-85808226D02*
X153010808Y-85879655D01*
X153010808Y-85879655D02*
X153046522Y-86022512D01*
X153046522Y-86022512D02*
X153046522Y-86201084D01*
X153046522Y-86201084D02*
X153010808Y-86343941D01*
X153010808Y-86343941D02*
X152975094Y-86415369D01*
X152975094Y-86415369D02*
X152939379Y-86451084D01*
X152939379Y-86451084D02*
X152867951Y-86486798D01*
X152867951Y-86486798D02*
X152796522Y-86486798D01*
X152796522Y-86486798D02*
X152725094Y-86451084D01*
X152725094Y-86451084D02*
X152689379Y-86415369D01*
X152689379Y-86415369D02*
X152653665Y-86343941D01*
X152653665Y-86343941D02*
X152617951Y-86201084D01*
X152617951Y-86201084D02*
X152617951Y-86022512D01*
X152617951Y-86022512D02*
X152653665Y-85879655D01*
X152653665Y-85879655D02*
X152689379Y-85808226D01*
X152689379Y-85808226D02*
X152725094Y-85772512D01*
X152725094Y-85772512D02*
X152796522Y-85736798D01*
X153939380Y-86486798D02*
X153939380Y-85736798D01*
X153939380Y-86093941D02*
X154367951Y-86093941D01*
X154367951Y-86486798D02*
X154367951Y-85736798D01*
X154725094Y-85736798D02*
X154725094Y-86343941D01*
X154725094Y-86343941D02*
X154760808Y-86415369D01*
X154760808Y-86415369D02*
X154796523Y-86451084D01*
X154796523Y-86451084D02*
X154867951Y-86486798D01*
X154867951Y-86486798D02*
X155010808Y-86486798D01*
X155010808Y-86486798D02*
X155082237Y-86451084D01*
X155082237Y-86451084D02*
X155117951Y-86415369D01*
X155117951Y-86415369D02*
X155153665Y-86343941D01*
X155153665Y-86343941D02*
X155153665Y-85736798D01*
X155760808Y-86093941D02*
X155867951Y-86129655D01*
X155867951Y-86129655D02*
X155903665Y-86165369D01*
X155903665Y-86165369D02*
X155939379Y-86236798D01*
X155939379Y-86236798D02*
X155939379Y-86343941D01*
X155939379Y-86343941D02*
X155903665Y-86415369D01*
X155903665Y-86415369D02*
X155867951Y-86451084D01*
X155867951Y-86451084D02*
X155796522Y-86486798D01*
X155796522Y-86486798D02*
X155510808Y-86486798D01*
X155510808Y-86486798D02*
X155510808Y-85736798D01*
X155510808Y-85736798D02*
X155760808Y-85736798D01*
X155760808Y-85736798D02*
X155832237Y-85772512D01*
X155832237Y-85772512D02*
X155867951Y-85808226D01*
X155867951Y-85808226D02*
X155903665Y-85879655D01*
X155903665Y-85879655D02*
X155903665Y-85951084D01*
X155903665Y-85951084D02*
X155867951Y-86022512D01*
X155867951Y-86022512D02*
X155832237Y-86058226D01*
X155832237Y-86058226D02*
X155760808Y-86093941D01*
X155760808Y-86093941D02*
X155510808Y-86093941D01*
X156760808Y-85986798D02*
X156939380Y-86486798D01*
X156939380Y-86486798D02*
X157117951Y-85986798D01*
X157796523Y-86486798D02*
X157367952Y-86486798D01*
X157582237Y-86486798D02*
X157582237Y-85736798D01*
X157582237Y-85736798D02*
X157510809Y-85843941D01*
X157510809Y-85843941D02*
X157439380Y-85915369D01*
X157439380Y-85915369D02*
X157367952Y-85951084D01*
X158117952Y-86415369D02*
X158153666Y-86451084D01*
X158153666Y-86451084D02*
X158117952Y-86486798D01*
X158117952Y-86486798D02*
X158082238Y-86451084D01*
X158082238Y-86451084D02*
X158117952Y-86415369D01*
X158117952Y-86415369D02*
X158117952Y-86486798D01*
X158617952Y-85736798D02*
X158689381Y-85736798D01*
X158689381Y-85736798D02*
X158760809Y-85772512D01*
X158760809Y-85772512D02*
X158796524Y-85808226D01*
X158796524Y-85808226D02*
X158832238Y-85879655D01*
X158832238Y-85879655D02*
X158867952Y-86022512D01*
X158867952Y-86022512D02*
X158867952Y-86201084D01*
X158867952Y-86201084D02*
X158832238Y-86343941D01*
X158832238Y-86343941D02*
X158796524Y-86415369D01*
X158796524Y-86415369D02*
X158760809Y-86451084D01*
X158760809Y-86451084D02*
X158689381Y-86486798D01*
X158689381Y-86486798D02*
X158617952Y-86486798D01*
X158617952Y-86486798D02*
X158546524Y-86451084D01*
X158546524Y-86451084D02*
X158510809Y-86415369D01*
X158510809Y-86415369D02*
X158475095Y-86343941D01*
X158475095Y-86343941D02*
X158439381Y-86201084D01*
X158439381Y-86201084D02*
X158439381Y-86022512D01*
X158439381Y-86022512D02*
X158475095Y-85879655D01*
X158475095Y-85879655D02*
X158510809Y-85808226D01*
X158510809Y-85808226D02*
X158546524Y-85772512D01*
X158546524Y-85772512D02*
X158617952Y-85736798D01*
X149153664Y-86979970D02*
X149082236Y-86944256D01*
X149082236Y-86944256D02*
X148975093Y-86944256D01*
X148975093Y-86944256D02*
X148867950Y-86979970D01*
X148867950Y-86979970D02*
X148796521Y-87051399D01*
X148796521Y-87051399D02*
X148760807Y-87122827D01*
X148760807Y-87122827D02*
X148725093Y-87265684D01*
X148725093Y-87265684D02*
X148725093Y-87372827D01*
X148725093Y-87372827D02*
X148760807Y-87515684D01*
X148760807Y-87515684D02*
X148796521Y-87587113D01*
X148796521Y-87587113D02*
X148867950Y-87658542D01*
X148867950Y-87658542D02*
X148975093Y-87694256D01*
X148975093Y-87694256D02*
X149046521Y-87694256D01*
X149046521Y-87694256D02*
X149153664Y-87658542D01*
X149153664Y-87658542D02*
X149189378Y-87622827D01*
X149189378Y-87622827D02*
X149189378Y-87372827D01*
X149189378Y-87372827D02*
X149046521Y-87372827D01*
X149939378Y-87694256D02*
X149689378Y-87337113D01*
X149510807Y-87694256D02*
X149510807Y-86944256D01*
X149510807Y-86944256D02*
X149796521Y-86944256D01*
X149796521Y-86944256D02*
X149867950Y-86979970D01*
X149867950Y-86979970D02*
X149903664Y-87015684D01*
X149903664Y-87015684D02*
X149939378Y-87087113D01*
X149939378Y-87087113D02*
X149939378Y-87194256D01*
X149939378Y-87194256D02*
X149903664Y-87265684D01*
X149903664Y-87265684D02*
X149867950Y-87301399D01*
X149867950Y-87301399D02*
X149796521Y-87337113D01*
X149796521Y-87337113D02*
X149510807Y-87337113D01*
X150225093Y-87479970D02*
X150582236Y-87479970D01*
X150153664Y-87694256D02*
X150403664Y-86944256D01*
X150403664Y-86944256D02*
X150653664Y-87694256D01*
X151332235Y-87622827D02*
X151296521Y-87658542D01*
X151296521Y-87658542D02*
X151189378Y-87694256D01*
X151189378Y-87694256D02*
X151117950Y-87694256D01*
X151117950Y-87694256D02*
X151010807Y-87658542D01*
X151010807Y-87658542D02*
X150939378Y-87587113D01*
X150939378Y-87587113D02*
X150903664Y-87515684D01*
X150903664Y-87515684D02*
X150867950Y-87372827D01*
X150867950Y-87372827D02*
X150867950Y-87265684D01*
X150867950Y-87265684D02*
X150903664Y-87122827D01*
X150903664Y-87122827D02*
X150939378Y-87051399D01*
X150939378Y-87051399D02*
X151010807Y-86979970D01*
X151010807Y-86979970D02*
X151117950Y-86944256D01*
X151117950Y-86944256D02*
X151189378Y-86944256D01*
X151189378Y-86944256D02*
X151296521Y-86979970D01*
X151296521Y-86979970D02*
X151332235Y-87015684D01*
X151653664Y-87301399D02*
X151903664Y-87301399D01*
X152010807Y-87694256D02*
X151653664Y-87694256D01*
X151653664Y-87694256D02*
X151653664Y-86944256D01*
X151653664Y-86944256D02*
X152010807Y-86944256D01*
X152903664Y-87694256D02*
X152903664Y-86944256D01*
X152903664Y-86944256D02*
X153153664Y-87479970D01*
X153153664Y-87479970D02*
X153403664Y-86944256D01*
X153403664Y-86944256D02*
X153403664Y-87694256D01*
X153725093Y-87479970D02*
X154082236Y-87479970D01*
X153653664Y-87694256D02*
X153903664Y-86944256D01*
X153903664Y-86944256D02*
X154153664Y-87694256D01*
X154832235Y-87694256D02*
X154582235Y-87337113D01*
X154403664Y-87694256D02*
X154403664Y-86944256D01*
X154403664Y-86944256D02*
X154689378Y-86944256D01*
X154689378Y-86944256D02*
X154760807Y-86979970D01*
X154760807Y-86979970D02*
X154796521Y-87015684D01*
X154796521Y-87015684D02*
X154832235Y-87087113D01*
X154832235Y-87087113D02*
X154832235Y-87194256D01*
X154832235Y-87194256D02*
X154796521Y-87265684D01*
X154796521Y-87265684D02*
X154760807Y-87301399D01*
X154760807Y-87301399D02*
X154689378Y-87337113D01*
X154689378Y-87337113D02*
X154403664Y-87337113D01*
X155582235Y-87622827D02*
X155546521Y-87658542D01*
X155546521Y-87658542D02*
X155439378Y-87694256D01*
X155439378Y-87694256D02*
X155367950Y-87694256D01*
X155367950Y-87694256D02*
X155260807Y-87658542D01*
X155260807Y-87658542D02*
X155189378Y-87587113D01*
X155189378Y-87587113D02*
X155153664Y-87515684D01*
X155153664Y-87515684D02*
X155117950Y-87372827D01*
X155117950Y-87372827D02*
X155117950Y-87265684D01*
X155117950Y-87265684D02*
X155153664Y-87122827D01*
X155153664Y-87122827D02*
X155189378Y-87051399D01*
X155189378Y-87051399D02*
X155260807Y-86979970D01*
X155260807Y-86979970D02*
X155367950Y-86944256D01*
X155367950Y-86944256D02*
X155439378Y-86944256D01*
X155439378Y-86944256D02*
X155546521Y-86979970D01*
X155546521Y-86979970D02*
X155582235Y-87015684D01*
X155903664Y-86944256D02*
X155903664Y-87551399D01*
X155903664Y-87551399D02*
X155939378Y-87622827D01*
X155939378Y-87622827D02*
X155975093Y-87658542D01*
X155975093Y-87658542D02*
X156046521Y-87694256D01*
X156046521Y-87694256D02*
X156189378Y-87694256D01*
X156189378Y-87694256D02*
X156260807Y-87658542D01*
X156260807Y-87658542D02*
X156296521Y-87622827D01*
X156296521Y-87622827D02*
X156332235Y-87551399D01*
X156332235Y-87551399D02*
X156332235Y-86944256D01*
X156653664Y-87658542D02*
X156760807Y-87694256D01*
X156760807Y-87694256D02*
X156939378Y-87694256D01*
X156939378Y-87694256D02*
X157010807Y-87658542D01*
X157010807Y-87658542D02*
X157046521Y-87622827D01*
X157046521Y-87622827D02*
X157082235Y-87551399D01*
X157082235Y-87551399D02*
X157082235Y-87479970D01*
X157082235Y-87479970D02*
X157046521Y-87408542D01*
X157046521Y-87408542D02*
X157010807Y-87372827D01*
X157010807Y-87372827D02*
X156939378Y-87337113D01*
X156939378Y-87337113D02*
X156796521Y-87301399D01*
X156796521Y-87301399D02*
X156725092Y-87265684D01*
X156725092Y-87265684D02*
X156689378Y-87229970D01*
X156689378Y-87229970D02*
X156653664Y-87158542D01*
X156653664Y-87158542D02*
X156653664Y-87087113D01*
X156653664Y-87087113D02*
X156689378Y-87015684D01*
X156689378Y-87015684D02*
X156725092Y-86979970D01*
X156725092Y-86979970D02*
X156796521Y-86944256D01*
X156796521Y-86944256D02*
X156975092Y-86944256D01*
X156975092Y-86944256D02*
X157082235Y-86979970D01*
X149117950Y-88151714D02*
X148760807Y-88151714D01*
X148760807Y-88151714D02*
X148725093Y-88508857D01*
X148725093Y-88508857D02*
X148760807Y-88473142D01*
X148760807Y-88473142D02*
X148832236Y-88437428D01*
X148832236Y-88437428D02*
X149010807Y-88437428D01*
X149010807Y-88437428D02*
X149082236Y-88473142D01*
X149082236Y-88473142D02*
X149117950Y-88508857D01*
X149117950Y-88508857D02*
X149153664Y-88580285D01*
X149153664Y-88580285D02*
X149153664Y-88758857D01*
X149153664Y-88758857D02*
X149117950Y-88830285D01*
X149117950Y-88830285D02*
X149082236Y-88866000D01*
X149082236Y-88866000D02*
X149010807Y-88901714D01*
X149010807Y-88901714D02*
X148832236Y-88901714D01*
X148832236Y-88901714D02*
X148760807Y-88866000D01*
X148760807Y-88866000D02*
X148725093Y-88830285D01*
X149475093Y-88616000D02*
X150046522Y-88616000D01*
X150367950Y-88223142D02*
X150403664Y-88187428D01*
X150403664Y-88187428D02*
X150475093Y-88151714D01*
X150475093Y-88151714D02*
X150653664Y-88151714D01*
X150653664Y-88151714D02*
X150725093Y-88187428D01*
X150725093Y-88187428D02*
X150760807Y-88223142D01*
X150760807Y-88223142D02*
X150796521Y-88294571D01*
X150796521Y-88294571D02*
X150796521Y-88366000D01*
X150796521Y-88366000D02*
X150760807Y-88473142D01*
X150760807Y-88473142D02*
X150332235Y-88901714D01*
X150332235Y-88901714D02*
X150796521Y-88901714D01*
X151046521Y-88151714D02*
X151510807Y-88151714D01*
X151510807Y-88151714D02*
X151260807Y-88437428D01*
X151260807Y-88437428D02*
X151367950Y-88437428D01*
X151367950Y-88437428D02*
X151439379Y-88473142D01*
X151439379Y-88473142D02*
X151475093Y-88508857D01*
X151475093Y-88508857D02*
X151510807Y-88580285D01*
X151510807Y-88580285D02*
X151510807Y-88758857D01*
X151510807Y-88758857D02*
X151475093Y-88830285D01*
X151475093Y-88830285D02*
X151439379Y-88866000D01*
X151439379Y-88866000D02*
X151367950Y-88901714D01*
X151367950Y-88901714D02*
X151153664Y-88901714D01*
X151153664Y-88901714D02*
X151082236Y-88866000D01*
X151082236Y-88866000D02*
X151046521Y-88830285D01*
X151832236Y-88616000D02*
X152403665Y-88616000D01*
X152725093Y-88223142D02*
X152760807Y-88187428D01*
X152760807Y-88187428D02*
X152832236Y-88151714D01*
X152832236Y-88151714D02*
X153010807Y-88151714D01*
X153010807Y-88151714D02*
X153082236Y-88187428D01*
X153082236Y-88187428D02*
X153117950Y-88223142D01*
X153117950Y-88223142D02*
X153153664Y-88294571D01*
X153153664Y-88294571D02*
X153153664Y-88366000D01*
X153153664Y-88366000D02*
X153117950Y-88473142D01*
X153117950Y-88473142D02*
X152689378Y-88901714D01*
X152689378Y-88901714D02*
X153153664Y-88901714D01*
X153617950Y-88151714D02*
X153689379Y-88151714D01*
X153689379Y-88151714D02*
X153760807Y-88187428D01*
X153760807Y-88187428D02*
X153796522Y-88223142D01*
X153796522Y-88223142D02*
X153832236Y-88294571D01*
X153832236Y-88294571D02*
X153867950Y-88437428D01*
X153867950Y-88437428D02*
X153867950Y-88616000D01*
X153867950Y-88616000D02*
X153832236Y-88758857D01*
X153832236Y-88758857D02*
X153796522Y-88830285D01*
X153796522Y-88830285D02*
X153760807Y-88866000D01*
X153760807Y-88866000D02*
X153689379Y-88901714D01*
X153689379Y-88901714D02*
X153617950Y-88901714D01*
X153617950Y-88901714D02*
X153546522Y-88866000D01*
X153546522Y-88866000D02*
X153510807Y-88830285D01*
X153510807Y-88830285D02*
X153475093Y-88758857D01*
X153475093Y-88758857D02*
X153439379Y-88616000D01*
X153439379Y-88616000D02*
X153439379Y-88437428D01*
X153439379Y-88437428D02*
X153475093Y-88294571D01*
X153475093Y-88294571D02*
X153510807Y-88223142D01*
X153510807Y-88223142D02*
X153546522Y-88187428D01*
X153546522Y-88187428D02*
X153617950Y-88151714D01*
X154153665Y-88223142D02*
X154189379Y-88187428D01*
X154189379Y-88187428D02*
X154260808Y-88151714D01*
X154260808Y-88151714D02*
X154439379Y-88151714D01*
X154439379Y-88151714D02*
X154510808Y-88187428D01*
X154510808Y-88187428D02*
X154546522Y-88223142D01*
X154546522Y-88223142D02*
X154582236Y-88294571D01*
X154582236Y-88294571D02*
X154582236Y-88366000D01*
X154582236Y-88366000D02*
X154546522Y-88473142D01*
X154546522Y-88473142D02*
X154117950Y-88901714D01*
X154117950Y-88901714D02*
X154582236Y-88901714D01*
X155225094Y-88151714D02*
X155082236Y-88151714D01*
X155082236Y-88151714D02*
X155010808Y-88187428D01*
X155010808Y-88187428D02*
X154975094Y-88223142D01*
X154975094Y-88223142D02*
X154903665Y-88330285D01*
X154903665Y-88330285D02*
X154867951Y-88473142D01*
X154867951Y-88473142D02*
X154867951Y-88758857D01*
X154867951Y-88758857D02*
X154903665Y-88830285D01*
X154903665Y-88830285D02*
X154939379Y-88866000D01*
X154939379Y-88866000D02*
X155010808Y-88901714D01*
X155010808Y-88901714D02*
X155153665Y-88901714D01*
X155153665Y-88901714D02*
X155225094Y-88866000D01*
X155225094Y-88866000D02*
X155260808Y-88830285D01*
X155260808Y-88830285D02*
X155296522Y-88758857D01*
X155296522Y-88758857D02*
X155296522Y-88580285D01*
X155296522Y-88580285D02*
X155260808Y-88508857D01*
X155260808Y-88508857D02*
X155225094Y-88473142D01*
X155225094Y-88473142D02*
X155153665Y-88437428D01*
X155153665Y-88437428D02*
X155010808Y-88437428D01*
X155010808Y-88437428D02*
X154939379Y-88473142D01*
X154939379Y-88473142D02*
X154903665Y-88508857D01*
X154903665Y-88508857D02*
X154867951Y-88580285D01*
D11*
X138738095Y-86006819D02*
X139309523Y-86006819D01*
X139023809Y-87006819D02*
X139023809Y-86006819D01*
X139642857Y-87006819D02*
X139642857Y-86006819D01*
X139642857Y-86006819D02*
X140023809Y-86006819D01*
X140023809Y-86006819D02*
X140119047Y-86054438D01*
X140119047Y-86054438D02*
X140166666Y-86102057D01*
X140166666Y-86102057D02*
X140214285Y-86197295D01*
X140214285Y-86197295D02*
X140214285Y-86340152D01*
X140214285Y-86340152D02*
X140166666Y-86435390D01*
X140166666Y-86435390D02*
X140119047Y-86483009D01*
X140119047Y-86483009D02*
X140023809Y-86530628D01*
X140023809Y-86530628D02*
X139642857Y-86530628D01*
X141119047Y-86006819D02*
X140642857Y-86006819D01*
X140642857Y-86006819D02*
X140595238Y-86483009D01*
X140595238Y-86483009D02*
X140642857Y-86435390D01*
X140642857Y-86435390D02*
X140738095Y-86387771D01*
X140738095Y-86387771D02*
X140976190Y-86387771D01*
X140976190Y-86387771D02*
X141071428Y-86435390D01*
X141071428Y-86435390D02*
X141119047Y-86483009D01*
X141119047Y-86483009D02*
X141166666Y-86578247D01*
X141166666Y-86578247D02*
X141166666Y-86816342D01*
X141166666Y-86816342D02*
X141119047Y-86911580D01*
X141119047Y-86911580D02*
X141071428Y-86959200D01*
X141071428Y-86959200D02*
X140976190Y-87006819D01*
X140976190Y-87006819D02*
X140738095Y-87006819D01*
X140738095Y-87006819D02*
X140642857Y-86959200D01*
X140642857Y-86959200D02*
X140595238Y-86911580D01*
X135738095Y-111454819D02*
X136309523Y-111454819D01*
X136023809Y-112454819D02*
X136023809Y-111454819D01*
X136642857Y-112454819D02*
X136642857Y-111454819D01*
X136642857Y-111454819D02*
X137023809Y-111454819D01*
X137023809Y-111454819D02*
X137119047Y-111502438D01*
X137119047Y-111502438D02*
X137166666Y-111550057D01*
X137166666Y-111550057D02*
X137214285Y-111645295D01*
X137214285Y-111645295D02*
X137214285Y-111788152D01*
X137214285Y-111788152D02*
X137166666Y-111883390D01*
X137166666Y-111883390D02*
X137119047Y-111931009D01*
X137119047Y-111931009D02*
X137023809Y-111978628D01*
X137023809Y-111978628D02*
X136642857Y-111978628D01*
X138071428Y-111788152D02*
X138071428Y-112454819D01*
X137833333Y-111407200D02*
X137595238Y-112121485D01*
X137595238Y-112121485D02*
X138214285Y-112121485D01*
X155238095Y-75954819D02*
X155809523Y-75954819D01*
X155523809Y-76954819D02*
X155523809Y-75954819D01*
X156142857Y-76954819D02*
X156142857Y-75954819D01*
X156142857Y-75954819D02*
X156523809Y-75954819D01*
X156523809Y-75954819D02*
X156619047Y-76002438D01*
X156619047Y-76002438D02*
X156666666Y-76050057D01*
X156666666Y-76050057D02*
X156714285Y-76145295D01*
X156714285Y-76145295D02*
X156714285Y-76288152D01*
X156714285Y-76288152D02*
X156666666Y-76383390D01*
X156666666Y-76383390D02*
X156619047Y-76431009D01*
X156619047Y-76431009D02*
X156523809Y-76478628D01*
X156523809Y-76478628D02*
X156142857Y-76478628D01*
X157047619Y-75954819D02*
X157666666Y-75954819D01*
X157666666Y-75954819D02*
X157333333Y-76335771D01*
X157333333Y-76335771D02*
X157476190Y-76335771D01*
X157476190Y-76335771D02*
X157571428Y-76383390D01*
X157571428Y-76383390D02*
X157619047Y-76431009D01*
X157619047Y-76431009D02*
X157666666Y-76526247D01*
X157666666Y-76526247D02*
X157666666Y-76764342D01*
X157666666Y-76764342D02*
X157619047Y-76859580D01*
X157619047Y-76859580D02*
X157571428Y-76907200D01*
X157571428Y-76907200D02*
X157476190Y-76954819D01*
X157476190Y-76954819D02*
X157190476Y-76954819D01*
X157190476Y-76954819D02*
X157095238Y-76907200D01*
X157095238Y-76907200D02*
X157047619Y-76859580D01*
X151738095Y-75954819D02*
X152309523Y-75954819D01*
X152023809Y-76954819D02*
X152023809Y-75954819D01*
X152642857Y-76954819D02*
X152642857Y-75954819D01*
X152642857Y-75954819D02*
X153023809Y-75954819D01*
X153023809Y-75954819D02*
X153119047Y-76002438D01*
X153119047Y-76002438D02*
X153166666Y-76050057D01*
X153166666Y-76050057D02*
X153214285Y-76145295D01*
X153214285Y-76145295D02*
X153214285Y-76288152D01*
X153214285Y-76288152D02*
X153166666Y-76383390D01*
X153166666Y-76383390D02*
X153119047Y-76431009D01*
X153119047Y-76431009D02*
X153023809Y-76478628D01*
X153023809Y-76478628D02*
X152642857Y-76478628D01*
X153595238Y-76050057D02*
X153642857Y-76002438D01*
X153642857Y-76002438D02*
X153738095Y-75954819D01*
X153738095Y-75954819D02*
X153976190Y-75954819D01*
X153976190Y-75954819D02*
X154071428Y-76002438D01*
X154071428Y-76002438D02*
X154119047Y-76050057D01*
X154119047Y-76050057D02*
X154166666Y-76145295D01*
X154166666Y-76145295D02*
X154166666Y-76240533D01*
X154166666Y-76240533D02*
X154119047Y-76383390D01*
X154119047Y-76383390D02*
X153547619Y-76954819D01*
X153547619Y-76954819D02*
X154166666Y-76954819D01*
X148240231Y-75913255D02*
X148811659Y-75913255D01*
X148525945Y-76913255D02*
X148525945Y-75913255D01*
X149144993Y-76913255D02*
X149144993Y-75913255D01*
X149144993Y-75913255D02*
X149525945Y-75913255D01*
X149525945Y-75913255D02*
X149621183Y-75960874D01*
X149621183Y-75960874D02*
X149668802Y-76008493D01*
X149668802Y-76008493D02*
X149716421Y-76103731D01*
X149716421Y-76103731D02*
X149716421Y-76246588D01*
X149716421Y-76246588D02*
X149668802Y-76341826D01*
X149668802Y-76341826D02*
X149621183Y-76389445D01*
X149621183Y-76389445D02*
X149525945Y-76437064D01*
X149525945Y-76437064D02*
X149144993Y-76437064D01*
X150668802Y-76913255D02*
X150097374Y-76913255D01*
X150383088Y-76913255D02*
X150383088Y-75913255D01*
X150383088Y-75913255D02*
X150287850Y-76056112D01*
X150287850Y-76056112D02*
X150192612Y-76151350D01*
X150192612Y-76151350D02*
X150097374Y-76198969D01*
X136634819Y-95878666D02*
X136158628Y-96211999D01*
X136634819Y-96450094D02*
X135634819Y-96450094D01*
X135634819Y-96450094D02*
X135634819Y-96069142D01*
X135634819Y-96069142D02*
X135682438Y-95973904D01*
X135682438Y-95973904D02*
X135730057Y-95926285D01*
X135730057Y-95926285D02*
X135825295Y-95878666D01*
X135825295Y-95878666D02*
X135968152Y-95878666D01*
X135968152Y-95878666D02*
X136063390Y-95926285D01*
X136063390Y-95926285D02*
X136111009Y-95973904D01*
X136111009Y-95973904D02*
X136158628Y-96069142D01*
X136158628Y-96069142D02*
X136158628Y-96450094D01*
X135634819Y-95545332D02*
X135634819Y-94926285D01*
X135634819Y-94926285D02*
X136015771Y-95259618D01*
X136015771Y-95259618D02*
X136015771Y-95116761D01*
X136015771Y-95116761D02*
X136063390Y-95021523D01*
X136063390Y-95021523D02*
X136111009Y-94973904D01*
X136111009Y-94973904D02*
X136206247Y-94926285D01*
X136206247Y-94926285D02*
X136444342Y-94926285D01*
X136444342Y-94926285D02*
X136539580Y-94973904D01*
X136539580Y-94973904D02*
X136587200Y-95021523D01*
X136587200Y-95021523D02*
X136634819Y-95116761D01*
X136634819Y-95116761D02*
X136634819Y-95402475D01*
X136634819Y-95402475D02*
X136587200Y-95497713D01*
X136587200Y-95497713D02*
X136539580Y-95545332D01*
X139856979Y-91342640D02*
X139904599Y-91390259D01*
X139904599Y-91390259D02*
X139952218Y-91533116D01*
X139952218Y-91533116D02*
X139952218Y-91628354D01*
X139952218Y-91628354D02*
X139904599Y-91771211D01*
X139904599Y-91771211D02*
X139809360Y-91866449D01*
X139809360Y-91866449D02*
X139714122Y-91914068D01*
X139714122Y-91914068D02*
X139523646Y-91961687D01*
X139523646Y-91961687D02*
X139380789Y-91961687D01*
X139380789Y-91961687D02*
X139190313Y-91914068D01*
X139190313Y-91914068D02*
X139095075Y-91866449D01*
X139095075Y-91866449D02*
X138999837Y-91771211D01*
X138999837Y-91771211D02*
X138952218Y-91628354D01*
X138952218Y-91628354D02*
X138952218Y-91533116D01*
X138952218Y-91533116D02*
X138999837Y-91390259D01*
X138999837Y-91390259D02*
X139047456Y-91342640D01*
X139952218Y-90390259D02*
X139952218Y-90961687D01*
X139952218Y-90675973D02*
X138952218Y-90675973D01*
X138952218Y-90675973D02*
X139095075Y-90771211D01*
X139095075Y-90771211D02*
X139190313Y-90866449D01*
X139190313Y-90866449D02*
X139237932Y-90961687D01*
X139952218Y-89437878D02*
X139952218Y-90009306D01*
X139952218Y-89723592D02*
X138952218Y-89723592D01*
X138952218Y-89723592D02*
X139095075Y-89818830D01*
X139095075Y-89818830D02*
X139190313Y-89914068D01*
X139190313Y-89914068D02*
X139237932Y-90009306D01*
X117160383Y-107359580D02*
X117112764Y-107407200D01*
X117112764Y-107407200D02*
X116969907Y-107454819D01*
X116969907Y-107454819D02*
X116874669Y-107454819D01*
X116874669Y-107454819D02*
X116731812Y-107407200D01*
X116731812Y-107407200D02*
X116636574Y-107311961D01*
X116636574Y-107311961D02*
X116588955Y-107216723D01*
X116588955Y-107216723D02*
X116541336Y-107026247D01*
X116541336Y-107026247D02*
X116541336Y-106883390D01*
X116541336Y-106883390D02*
X116588955Y-106692914D01*
X116588955Y-106692914D02*
X116636574Y-106597676D01*
X116636574Y-106597676D02*
X116731812Y-106502438D01*
X116731812Y-106502438D02*
X116874669Y-106454819D01*
X116874669Y-106454819D02*
X116969907Y-106454819D01*
X116969907Y-106454819D02*
X117112764Y-106502438D01*
X117112764Y-106502438D02*
X117160383Y-106550057D01*
X117541336Y-106550057D02*
X117588955Y-106502438D01*
X117588955Y-106502438D02*
X117684193Y-106454819D01*
X117684193Y-106454819D02*
X117922288Y-106454819D01*
X117922288Y-106454819D02*
X118017526Y-106502438D01*
X118017526Y-106502438D02*
X118065145Y-106550057D01*
X118065145Y-106550057D02*
X118112764Y-106645295D01*
X118112764Y-106645295D02*
X118112764Y-106740533D01*
X118112764Y-106740533D02*
X118065145Y-106883390D01*
X118065145Y-106883390D02*
X117493717Y-107454819D01*
X117493717Y-107454819D02*
X118112764Y-107454819D01*
X118493717Y-106550057D02*
X118541336Y-106502438D01*
X118541336Y-106502438D02*
X118636574Y-106454819D01*
X118636574Y-106454819D02*
X118874669Y-106454819D01*
X118874669Y-106454819D02*
X118969907Y-106502438D01*
X118969907Y-106502438D02*
X119017526Y-106550057D01*
X119017526Y-106550057D02*
X119065145Y-106645295D01*
X119065145Y-106645295D02*
X119065145Y-106740533D01*
X119065145Y-106740533D02*
X119017526Y-106883390D01*
X119017526Y-106883390D02*
X118446098Y-107454819D01*
X118446098Y-107454819D02*
X119065145Y-107454819D01*
X146013333Y-105666819D02*
X145680000Y-105190628D01*
X145441905Y-105666819D02*
X145441905Y-104666819D01*
X145441905Y-104666819D02*
X145822857Y-104666819D01*
X145822857Y-104666819D02*
X145918095Y-104714438D01*
X145918095Y-104714438D02*
X145965714Y-104762057D01*
X145965714Y-104762057D02*
X146013333Y-104857295D01*
X146013333Y-104857295D02*
X146013333Y-105000152D01*
X146013333Y-105000152D02*
X145965714Y-105095390D01*
X145965714Y-105095390D02*
X145918095Y-105143009D01*
X145918095Y-105143009D02*
X145822857Y-105190628D01*
X145822857Y-105190628D02*
X145441905Y-105190628D01*
X146394286Y-104762057D02*
X146441905Y-104714438D01*
X146441905Y-104714438D02*
X146537143Y-104666819D01*
X146537143Y-104666819D02*
X146775238Y-104666819D01*
X146775238Y-104666819D02*
X146870476Y-104714438D01*
X146870476Y-104714438D02*
X146918095Y-104762057D01*
X146918095Y-104762057D02*
X146965714Y-104857295D01*
X146965714Y-104857295D02*
X146965714Y-104952533D01*
X146965714Y-104952533D02*
X146918095Y-105095390D01*
X146918095Y-105095390D02*
X146346667Y-105666819D01*
X146346667Y-105666819D02*
X146965714Y-105666819D01*
X116454819Y-92333333D02*
X117169104Y-92333333D01*
X117169104Y-92333333D02*
X117311961Y-92380952D01*
X117311961Y-92380952D02*
X117407200Y-92476190D01*
X117407200Y-92476190D02*
X117454819Y-92619047D01*
X117454819Y-92619047D02*
X117454819Y-92714285D01*
X116454819Y-91380952D02*
X116454819Y-91857142D01*
X116454819Y-91857142D02*
X116931009Y-91904761D01*
X116931009Y-91904761D02*
X116883390Y-91857142D01*
X116883390Y-91857142D02*
X116835771Y-91761904D01*
X116835771Y-91761904D02*
X116835771Y-91523809D01*
X116835771Y-91523809D02*
X116883390Y-91428571D01*
X116883390Y-91428571D02*
X116931009Y-91380952D01*
X116931009Y-91380952D02*
X117026247Y-91333333D01*
X117026247Y-91333333D02*
X117264342Y-91333333D01*
X117264342Y-91333333D02*
X117359580Y-91380952D01*
X117359580Y-91380952D02*
X117407200Y-91428571D01*
X117407200Y-91428571D02*
X117454819Y-91523809D01*
X117454819Y-91523809D02*
X117454819Y-91761904D01*
X117454819Y-91761904D02*
X117407200Y-91857142D01*
X117407200Y-91857142D02*
X117359580Y-91904761D01*
X145359580Y-109686666D02*
X145407200Y-109734285D01*
X145407200Y-109734285D02*
X145454819Y-109877142D01*
X145454819Y-109877142D02*
X145454819Y-109972380D01*
X145454819Y-109972380D02*
X145407200Y-110115237D01*
X145407200Y-110115237D02*
X145311961Y-110210475D01*
X145311961Y-110210475D02*
X145216723Y-110258094D01*
X145216723Y-110258094D02*
X145026247Y-110305713D01*
X145026247Y-110305713D02*
X144883390Y-110305713D01*
X144883390Y-110305713D02*
X144692914Y-110258094D01*
X144692914Y-110258094D02*
X144597676Y-110210475D01*
X144597676Y-110210475D02*
X144502438Y-110115237D01*
X144502438Y-110115237D02*
X144454819Y-109972380D01*
X144454819Y-109972380D02*
X144454819Y-109877142D01*
X144454819Y-109877142D02*
X144502438Y-109734285D01*
X144502438Y-109734285D02*
X144550057Y-109686666D01*
X144454819Y-108829523D02*
X144454819Y-109019999D01*
X144454819Y-109019999D02*
X144502438Y-109115237D01*
X144502438Y-109115237D02*
X144550057Y-109162856D01*
X144550057Y-109162856D02*
X144692914Y-109258094D01*
X144692914Y-109258094D02*
X144883390Y-109305713D01*
X144883390Y-109305713D02*
X145264342Y-109305713D01*
X145264342Y-109305713D02*
X145359580Y-109258094D01*
X145359580Y-109258094D02*
X145407200Y-109210475D01*
X145407200Y-109210475D02*
X145454819Y-109115237D01*
X145454819Y-109115237D02*
X145454819Y-108924761D01*
X145454819Y-108924761D02*
X145407200Y-108829523D01*
X145407200Y-108829523D02*
X145359580Y-108781904D01*
X145359580Y-108781904D02*
X145264342Y-108734285D01*
X145264342Y-108734285D02*
X145026247Y-108734285D01*
X145026247Y-108734285D02*
X144931009Y-108781904D01*
X144931009Y-108781904D02*
X144883390Y-108829523D01*
X144883390Y-108829523D02*
X144835771Y-108924761D01*
X144835771Y-108924761D02*
X144835771Y-109115237D01*
X144835771Y-109115237D02*
X144883390Y-109210475D01*
X144883390Y-109210475D02*
X144931009Y-109258094D01*
X144931009Y-109258094D02*
X145026247Y-109305713D01*
X131231345Y-106356467D02*
X131231345Y-105569065D01*
X132056242Y-106281476D02*
X132018747Y-106318972D01*
X132018747Y-106318972D02*
X131906261Y-106356467D01*
X131906261Y-106356467D02*
X131831270Y-106356467D01*
X131831270Y-106356467D02*
X131718784Y-106318972D01*
X131718784Y-106318972D02*
X131643794Y-106243981D01*
X131643794Y-106243981D02*
X131606298Y-106168990D01*
X131606298Y-106168990D02*
X131568803Y-106019009D01*
X131568803Y-106019009D02*
X131568803Y-105906523D01*
X131568803Y-105906523D02*
X131606298Y-105756542D01*
X131606298Y-105756542D02*
X131643794Y-105681551D01*
X131643794Y-105681551D02*
X131718784Y-105606560D01*
X131718784Y-105606560D02*
X131831270Y-105569065D01*
X131831270Y-105569065D02*
X131906261Y-105569065D01*
X131906261Y-105569065D02*
X132018747Y-105606560D01*
X132018747Y-105606560D02*
X132056242Y-105644056D01*
X132806149Y-106356467D02*
X132356205Y-106356467D01*
X132581177Y-106356467D02*
X132581177Y-105569065D01*
X132581177Y-105569065D02*
X132506186Y-105681551D01*
X132506186Y-105681551D02*
X132431196Y-105756542D01*
X132431196Y-105756542D02*
X132356205Y-105794037D01*
X117107782Y-108832988D02*
X117060163Y-108880608D01*
X117060163Y-108880608D02*
X116917306Y-108928227D01*
X116917306Y-108928227D02*
X116822068Y-108928227D01*
X116822068Y-108928227D02*
X116679211Y-108880608D01*
X116679211Y-108880608D02*
X116583973Y-108785369D01*
X116583973Y-108785369D02*
X116536354Y-108690131D01*
X116536354Y-108690131D02*
X116488735Y-108499655D01*
X116488735Y-108499655D02*
X116488735Y-108356798D01*
X116488735Y-108356798D02*
X116536354Y-108166322D01*
X116536354Y-108166322D02*
X116583973Y-108071084D01*
X116583973Y-108071084D02*
X116679211Y-107975846D01*
X116679211Y-107975846D02*
X116822068Y-107928227D01*
X116822068Y-107928227D02*
X116917306Y-107928227D01*
X116917306Y-107928227D02*
X117060163Y-107975846D01*
X117060163Y-107975846D02*
X117107782Y-108023465D01*
X117488735Y-108023465D02*
X117536354Y-107975846D01*
X117536354Y-107975846D02*
X117631592Y-107928227D01*
X117631592Y-107928227D02*
X117869687Y-107928227D01*
X117869687Y-107928227D02*
X117964925Y-107975846D01*
X117964925Y-107975846D02*
X118012544Y-108023465D01*
X118012544Y-108023465D02*
X118060163Y-108118703D01*
X118060163Y-108118703D02*
X118060163Y-108213941D01*
X118060163Y-108213941D02*
X118012544Y-108356798D01*
X118012544Y-108356798D02*
X117441116Y-108928227D01*
X117441116Y-108928227D02*
X118060163Y-108928227D01*
X118393497Y-107928227D02*
X119012544Y-107928227D01*
X119012544Y-107928227D02*
X118679211Y-108309179D01*
X118679211Y-108309179D02*
X118822068Y-108309179D01*
X118822068Y-108309179D02*
X118917306Y-108356798D01*
X118917306Y-108356798D02*
X118964925Y-108404417D01*
X118964925Y-108404417D02*
X119012544Y-108499655D01*
X119012544Y-108499655D02*
X119012544Y-108737750D01*
X119012544Y-108737750D02*
X118964925Y-108832988D01*
X118964925Y-108832988D02*
X118917306Y-108880608D01*
X118917306Y-108880608D02*
X118822068Y-108928227D01*
X118822068Y-108928227D02*
X118536354Y-108928227D01*
X118536354Y-108928227D02*
X118441116Y-108880608D01*
X118441116Y-108880608D02*
X118393497Y-108832988D01*
X119954819Y-113642857D02*
X119478628Y-113976190D01*
X119954819Y-114214285D02*
X118954819Y-114214285D01*
X118954819Y-114214285D02*
X118954819Y-113833333D01*
X118954819Y-113833333D02*
X119002438Y-113738095D01*
X119002438Y-113738095D02*
X119050057Y-113690476D01*
X119050057Y-113690476D02*
X119145295Y-113642857D01*
X119145295Y-113642857D02*
X119288152Y-113642857D01*
X119288152Y-113642857D02*
X119383390Y-113690476D01*
X119383390Y-113690476D02*
X119431009Y-113738095D01*
X119431009Y-113738095D02*
X119478628Y-113833333D01*
X119478628Y-113833333D02*
X119478628Y-114214285D01*
X119954819Y-112690476D02*
X119954819Y-113261904D01*
X119954819Y-112976190D02*
X118954819Y-112976190D01*
X118954819Y-112976190D02*
X119097676Y-113071428D01*
X119097676Y-113071428D02*
X119192914Y-113166666D01*
X119192914Y-113166666D02*
X119240533Y-113261904D01*
X119050057Y-112309523D02*
X119002438Y-112261904D01*
X119002438Y-112261904D02*
X118954819Y-112166666D01*
X118954819Y-112166666D02*
X118954819Y-111928571D01*
X118954819Y-111928571D02*
X119002438Y-111833333D01*
X119002438Y-111833333D02*
X119050057Y-111785714D01*
X119050057Y-111785714D02*
X119145295Y-111738095D01*
X119145295Y-111738095D02*
X119240533Y-111738095D01*
X119240533Y-111738095D02*
X119383390Y-111785714D01*
X119383390Y-111785714D02*
X119954819Y-112357142D01*
X119954819Y-112357142D02*
X119954819Y-111738095D01*
X139504819Y-83899404D02*
X140314342Y-83899404D01*
X140314342Y-83899404D02*
X140409580Y-83851785D01*
X140409580Y-83851785D02*
X140457200Y-83804166D01*
X140457200Y-83804166D02*
X140504819Y-83708928D01*
X140504819Y-83708928D02*
X140504819Y-83518452D01*
X140504819Y-83518452D02*
X140457200Y-83423214D01*
X140457200Y-83423214D02*
X140409580Y-83375595D01*
X140409580Y-83375595D02*
X140314342Y-83327976D01*
X140314342Y-83327976D02*
X139504819Y-83327976D01*
X140504819Y-82327976D02*
X140504819Y-82899404D01*
X140504819Y-82613690D02*
X139504819Y-82613690D01*
X139504819Y-82613690D02*
X139647676Y-82708928D01*
X139647676Y-82708928D02*
X139742914Y-82804166D01*
X139742914Y-82804166D02*
X139790533Y-82899404D01*
X144399594Y-114041513D02*
X144447214Y-114089132D01*
X144447214Y-114089132D02*
X144494833Y-114231989D01*
X144494833Y-114231989D02*
X144494833Y-114327227D01*
X144494833Y-114327227D02*
X144447214Y-114470084D01*
X144447214Y-114470084D02*
X144351975Y-114565322D01*
X144351975Y-114565322D02*
X144256737Y-114612941D01*
X144256737Y-114612941D02*
X144066261Y-114660560D01*
X144066261Y-114660560D02*
X143923404Y-114660560D01*
X143923404Y-114660560D02*
X143732928Y-114612941D01*
X143732928Y-114612941D02*
X143637690Y-114565322D01*
X143637690Y-114565322D02*
X143542452Y-114470084D01*
X143542452Y-114470084D02*
X143494833Y-114327227D01*
X143494833Y-114327227D02*
X143494833Y-114231989D01*
X143494833Y-114231989D02*
X143542452Y-114089132D01*
X143542452Y-114089132D02*
X143590071Y-114041513D01*
X144494833Y-113089132D02*
X144494833Y-113660560D01*
X144494833Y-113374846D02*
X143494833Y-113374846D01*
X143494833Y-113374846D02*
X143637690Y-113470084D01*
X143637690Y-113470084D02*
X143732928Y-113565322D01*
X143732928Y-113565322D02*
X143780547Y-113660560D01*
X143494833Y-112755798D02*
X143494833Y-112136751D01*
X143494833Y-112136751D02*
X143875785Y-112470084D01*
X143875785Y-112470084D02*
X143875785Y-112327227D01*
X143875785Y-112327227D02*
X143923404Y-112231989D01*
X143923404Y-112231989D02*
X143971023Y-112184370D01*
X143971023Y-112184370D02*
X144066261Y-112136751D01*
X144066261Y-112136751D02*
X144304356Y-112136751D01*
X144304356Y-112136751D02*
X144399594Y-112184370D01*
X144399594Y-112184370D02*
X144447214Y-112231989D01*
X144447214Y-112231989D02*
X144494833Y-112327227D01*
X144494833Y-112327227D02*
X144494833Y-112612941D01*
X144494833Y-112612941D02*
X144447214Y-112708179D01*
X144447214Y-112708179D02*
X144399594Y-112755798D01*
X136859580Y-85146666D02*
X136907200Y-85194285D01*
X136907200Y-85194285D02*
X136954819Y-85337142D01*
X136954819Y-85337142D02*
X136954819Y-85432380D01*
X136954819Y-85432380D02*
X136907200Y-85575237D01*
X136907200Y-85575237D02*
X136811961Y-85670475D01*
X136811961Y-85670475D02*
X136716723Y-85718094D01*
X136716723Y-85718094D02*
X136526247Y-85765713D01*
X136526247Y-85765713D02*
X136383390Y-85765713D01*
X136383390Y-85765713D02*
X136192914Y-85718094D01*
X136192914Y-85718094D02*
X136097676Y-85670475D01*
X136097676Y-85670475D02*
X136002438Y-85575237D01*
X136002438Y-85575237D02*
X135954819Y-85432380D01*
X135954819Y-85432380D02*
X135954819Y-85337142D01*
X135954819Y-85337142D02*
X136002438Y-85194285D01*
X136002438Y-85194285D02*
X136050057Y-85146666D01*
X135954819Y-84813332D02*
X135954819Y-84194285D01*
X135954819Y-84194285D02*
X136335771Y-84527618D01*
X136335771Y-84527618D02*
X136335771Y-84384761D01*
X136335771Y-84384761D02*
X136383390Y-84289523D01*
X136383390Y-84289523D02*
X136431009Y-84241904D01*
X136431009Y-84241904D02*
X136526247Y-84194285D01*
X136526247Y-84194285D02*
X136764342Y-84194285D01*
X136764342Y-84194285D02*
X136859580Y-84241904D01*
X136859580Y-84241904D02*
X136907200Y-84289523D01*
X136907200Y-84289523D02*
X136954819Y-84384761D01*
X136954819Y-84384761D02*
X136954819Y-84670475D01*
X136954819Y-84670475D02*
X136907200Y-84765713D01*
X136907200Y-84765713D02*
X136859580Y-84813332D01*
X153904819Y-102761904D02*
X154714342Y-102761904D01*
X154714342Y-102761904D02*
X154809580Y-102714285D01*
X154809580Y-102714285D02*
X154857200Y-102666666D01*
X154857200Y-102666666D02*
X154904819Y-102571428D01*
X154904819Y-102571428D02*
X154904819Y-102380952D01*
X154904819Y-102380952D02*
X154857200Y-102285714D01*
X154857200Y-102285714D02*
X154809580Y-102238095D01*
X154809580Y-102238095D02*
X154714342Y-102190476D01*
X154714342Y-102190476D02*
X153904819Y-102190476D01*
X153904819Y-101809523D02*
X153904819Y-101190476D01*
X153904819Y-101190476D02*
X154285771Y-101523809D01*
X154285771Y-101523809D02*
X154285771Y-101380952D01*
X154285771Y-101380952D02*
X154333390Y-101285714D01*
X154333390Y-101285714D02*
X154381009Y-101238095D01*
X154381009Y-101238095D02*
X154476247Y-101190476D01*
X154476247Y-101190476D02*
X154714342Y-101190476D01*
X154714342Y-101190476D02*
X154809580Y-101238095D01*
X154809580Y-101238095D02*
X154857200Y-101285714D01*
X154857200Y-101285714D02*
X154904819Y-101380952D01*
X154904819Y-101380952D02*
X154904819Y-101666666D01*
X154904819Y-101666666D02*
X154857200Y-101761904D01*
X154857200Y-101761904D02*
X154809580Y-101809523D01*
X121737160Y-81812578D02*
X120737160Y-81812578D01*
X120737160Y-81812578D02*
X120737160Y-81574483D01*
X120737160Y-81574483D02*
X120784779Y-81431626D01*
X120784779Y-81431626D02*
X120880017Y-81336388D01*
X120880017Y-81336388D02*
X120975255Y-81288769D01*
X120975255Y-81288769D02*
X121165731Y-81241150D01*
X121165731Y-81241150D02*
X121308588Y-81241150D01*
X121308588Y-81241150D02*
X121499064Y-81288769D01*
X121499064Y-81288769D02*
X121594302Y-81336388D01*
X121594302Y-81336388D02*
X121689541Y-81431626D01*
X121689541Y-81431626D02*
X121737160Y-81574483D01*
X121737160Y-81574483D02*
X121737160Y-81812578D01*
X120737160Y-80384007D02*
X120737160Y-80574483D01*
X120737160Y-80574483D02*
X120784779Y-80669721D01*
X120784779Y-80669721D02*
X120832398Y-80717340D01*
X120832398Y-80717340D02*
X120975255Y-80812578D01*
X120975255Y-80812578D02*
X121165731Y-80860197D01*
X121165731Y-80860197D02*
X121546683Y-80860197D01*
X121546683Y-80860197D02*
X121641921Y-80812578D01*
X121641921Y-80812578D02*
X121689541Y-80764959D01*
X121689541Y-80764959D02*
X121737160Y-80669721D01*
X121737160Y-80669721D02*
X121737160Y-80479245D01*
X121737160Y-80479245D02*
X121689541Y-80384007D01*
X121689541Y-80384007D02*
X121641921Y-80336388D01*
X121641921Y-80336388D02*
X121546683Y-80288769D01*
X121546683Y-80288769D02*
X121308588Y-80288769D01*
X121308588Y-80288769D02*
X121213350Y-80336388D01*
X121213350Y-80336388D02*
X121165731Y-80384007D01*
X121165731Y-80384007D02*
X121118112Y-80479245D01*
X121118112Y-80479245D02*
X121118112Y-80669721D01*
X121118112Y-80669721D02*
X121165731Y-80764959D01*
X121165731Y-80764959D02*
X121213350Y-80812578D01*
X121213350Y-80812578D02*
X121308588Y-80860197D01*
X123738095Y-111954819D02*
X123738095Y-112764342D01*
X123738095Y-112764342D02*
X123785714Y-112859580D01*
X123785714Y-112859580D02*
X123833333Y-112907200D01*
X123833333Y-112907200D02*
X123928571Y-112954819D01*
X123928571Y-112954819D02*
X124119047Y-112954819D01*
X124119047Y-112954819D02*
X124214285Y-112907200D01*
X124214285Y-112907200D02*
X124261904Y-112859580D01*
X124261904Y-112859580D02*
X124309523Y-112764342D01*
X124309523Y-112764342D02*
X124309523Y-111954819D01*
X125261904Y-111954819D02*
X124785714Y-111954819D01*
X124785714Y-111954819D02*
X124738095Y-112431009D01*
X124738095Y-112431009D02*
X124785714Y-112383390D01*
X124785714Y-112383390D02*
X124880952Y-112335771D01*
X124880952Y-112335771D02*
X125119047Y-112335771D01*
X125119047Y-112335771D02*
X125214285Y-112383390D01*
X125214285Y-112383390D02*
X125261904Y-112431009D01*
X125261904Y-112431009D02*
X125309523Y-112526247D01*
X125309523Y-112526247D02*
X125309523Y-112764342D01*
X125309523Y-112764342D02*
X125261904Y-112859580D01*
X125261904Y-112859580D02*
X125214285Y-112907200D01*
X125214285Y-112907200D02*
X125119047Y-112954819D01*
X125119047Y-112954819D02*
X124880952Y-112954819D01*
X124880952Y-112954819D02*
X124785714Y-112907200D01*
X124785714Y-112907200D02*
X124738095Y-112859580D01*
X126297752Y-76858723D02*
X126250133Y-76906343D01*
X126250133Y-76906343D02*
X126107276Y-76953962D01*
X126107276Y-76953962D02*
X126012038Y-76953962D01*
X126012038Y-76953962D02*
X125869181Y-76906343D01*
X125869181Y-76906343D02*
X125773943Y-76811104D01*
X125773943Y-76811104D02*
X125726324Y-76715866D01*
X125726324Y-76715866D02*
X125678705Y-76525390D01*
X125678705Y-76525390D02*
X125678705Y-76382533D01*
X125678705Y-76382533D02*
X125726324Y-76192057D01*
X125726324Y-76192057D02*
X125773943Y-76096819D01*
X125773943Y-76096819D02*
X125869181Y-76001581D01*
X125869181Y-76001581D02*
X126012038Y-75953962D01*
X126012038Y-75953962D02*
X126107276Y-75953962D01*
X126107276Y-75953962D02*
X126250133Y-76001581D01*
X126250133Y-76001581D02*
X126297752Y-76049200D01*
X127250133Y-76953962D02*
X126678705Y-76953962D01*
X126964419Y-76953962D02*
X126964419Y-75953962D01*
X126964419Y-75953962D02*
X126869181Y-76096819D01*
X126869181Y-76096819D02*
X126773943Y-76192057D01*
X126773943Y-76192057D02*
X126678705Y-76239676D01*
X135359580Y-85146666D02*
X135407200Y-85194285D01*
X135407200Y-85194285D02*
X135454819Y-85337142D01*
X135454819Y-85337142D02*
X135454819Y-85432380D01*
X135454819Y-85432380D02*
X135407200Y-85575237D01*
X135407200Y-85575237D02*
X135311961Y-85670475D01*
X135311961Y-85670475D02*
X135216723Y-85718094D01*
X135216723Y-85718094D02*
X135026247Y-85765713D01*
X135026247Y-85765713D02*
X134883390Y-85765713D01*
X134883390Y-85765713D02*
X134692914Y-85718094D01*
X134692914Y-85718094D02*
X134597676Y-85670475D01*
X134597676Y-85670475D02*
X134502438Y-85575237D01*
X134502438Y-85575237D02*
X134454819Y-85432380D01*
X134454819Y-85432380D02*
X134454819Y-85337142D01*
X134454819Y-85337142D02*
X134502438Y-85194285D01*
X134502438Y-85194285D02*
X134550057Y-85146666D01*
X134550057Y-84765713D02*
X134502438Y-84718094D01*
X134502438Y-84718094D02*
X134454819Y-84622856D01*
X134454819Y-84622856D02*
X134454819Y-84384761D01*
X134454819Y-84384761D02*
X134502438Y-84289523D01*
X134502438Y-84289523D02*
X134550057Y-84241904D01*
X134550057Y-84241904D02*
X134645295Y-84194285D01*
X134645295Y-84194285D02*
X134740533Y-84194285D01*
X134740533Y-84194285D02*
X134883390Y-84241904D01*
X134883390Y-84241904D02*
X135454819Y-84813332D01*
X135454819Y-84813332D02*
X135454819Y-84194285D01*
X130513333Y-98071580D02*
X130465714Y-98119200D01*
X130465714Y-98119200D02*
X130322857Y-98166819D01*
X130322857Y-98166819D02*
X130227619Y-98166819D01*
X130227619Y-98166819D02*
X130084762Y-98119200D01*
X130084762Y-98119200D02*
X129989524Y-98023961D01*
X129989524Y-98023961D02*
X129941905Y-97928723D01*
X129941905Y-97928723D02*
X129894286Y-97738247D01*
X129894286Y-97738247D02*
X129894286Y-97595390D01*
X129894286Y-97595390D02*
X129941905Y-97404914D01*
X129941905Y-97404914D02*
X129989524Y-97309676D01*
X129989524Y-97309676D02*
X130084762Y-97214438D01*
X130084762Y-97214438D02*
X130227619Y-97166819D01*
X130227619Y-97166819D02*
X130322857Y-97166819D01*
X130322857Y-97166819D02*
X130465714Y-97214438D01*
X130465714Y-97214438D02*
X130513333Y-97262057D01*
X131084762Y-97595390D02*
X130989524Y-97547771D01*
X130989524Y-97547771D02*
X130941905Y-97500152D01*
X130941905Y-97500152D02*
X130894286Y-97404914D01*
X130894286Y-97404914D02*
X130894286Y-97357295D01*
X130894286Y-97357295D02*
X130941905Y-97262057D01*
X130941905Y-97262057D02*
X130989524Y-97214438D01*
X130989524Y-97214438D02*
X131084762Y-97166819D01*
X131084762Y-97166819D02*
X131275238Y-97166819D01*
X131275238Y-97166819D02*
X131370476Y-97214438D01*
X131370476Y-97214438D02*
X131418095Y-97262057D01*
X131418095Y-97262057D02*
X131465714Y-97357295D01*
X131465714Y-97357295D02*
X131465714Y-97404914D01*
X131465714Y-97404914D02*
X131418095Y-97500152D01*
X131418095Y-97500152D02*
X131370476Y-97547771D01*
X131370476Y-97547771D02*
X131275238Y-97595390D01*
X131275238Y-97595390D02*
X131084762Y-97595390D01*
X131084762Y-97595390D02*
X130989524Y-97643009D01*
X130989524Y-97643009D02*
X130941905Y-97690628D01*
X130941905Y-97690628D02*
X130894286Y-97785866D01*
X130894286Y-97785866D02*
X130894286Y-97976342D01*
X130894286Y-97976342D02*
X130941905Y-98071580D01*
X130941905Y-98071580D02*
X130989524Y-98119200D01*
X130989524Y-98119200D02*
X131084762Y-98166819D01*
X131084762Y-98166819D02*
X131275238Y-98166819D01*
X131275238Y-98166819D02*
X131370476Y-98119200D01*
X131370476Y-98119200D02*
X131418095Y-98071580D01*
X131418095Y-98071580D02*
X131465714Y-97976342D01*
X131465714Y-97976342D02*
X131465714Y-97785866D01*
X131465714Y-97785866D02*
X131418095Y-97690628D01*
X131418095Y-97690628D02*
X131370476Y-97643009D01*
X131370476Y-97643009D02*
X131275238Y-97595390D01*
X121359580Y-113642857D02*
X121407200Y-113690476D01*
X121407200Y-113690476D02*
X121454819Y-113833333D01*
X121454819Y-113833333D02*
X121454819Y-113928571D01*
X121454819Y-113928571D02*
X121407200Y-114071428D01*
X121407200Y-114071428D02*
X121311961Y-114166666D01*
X121311961Y-114166666D02*
X121216723Y-114214285D01*
X121216723Y-114214285D02*
X121026247Y-114261904D01*
X121026247Y-114261904D02*
X120883390Y-114261904D01*
X120883390Y-114261904D02*
X120692914Y-114214285D01*
X120692914Y-114214285D02*
X120597676Y-114166666D01*
X120597676Y-114166666D02*
X120502438Y-114071428D01*
X120502438Y-114071428D02*
X120454819Y-113928571D01*
X120454819Y-113928571D02*
X120454819Y-113833333D01*
X120454819Y-113833333D02*
X120502438Y-113690476D01*
X120502438Y-113690476D02*
X120550057Y-113642857D01*
X121454819Y-112690476D02*
X121454819Y-113261904D01*
X121454819Y-112976190D02*
X120454819Y-112976190D01*
X120454819Y-112976190D02*
X120597676Y-113071428D01*
X120597676Y-113071428D02*
X120692914Y-113166666D01*
X120692914Y-113166666D02*
X120740533Y-113261904D01*
X120788152Y-111833333D02*
X121454819Y-111833333D01*
X120407200Y-112071428D02*
X121121485Y-112309523D01*
X121121485Y-112309523D02*
X121121485Y-111690476D01*
X126343333Y-75454819D02*
X126010000Y-74978628D01*
X125771905Y-75454819D02*
X125771905Y-74454819D01*
X125771905Y-74454819D02*
X126152857Y-74454819D01*
X126152857Y-74454819D02*
X126248095Y-74502438D01*
X126248095Y-74502438D02*
X126295714Y-74550057D01*
X126295714Y-74550057D02*
X126343333Y-74645295D01*
X126343333Y-74645295D02*
X126343333Y-74788152D01*
X126343333Y-74788152D02*
X126295714Y-74883390D01*
X126295714Y-74883390D02*
X126248095Y-74931009D01*
X126248095Y-74931009D02*
X126152857Y-74978628D01*
X126152857Y-74978628D02*
X125771905Y-74978628D01*
X127295714Y-75454819D02*
X126724286Y-75454819D01*
X127010000Y-75454819D02*
X127010000Y-74454819D01*
X127010000Y-74454819D02*
X126914762Y-74597676D01*
X126914762Y-74597676D02*
X126819524Y-74692914D01*
X126819524Y-74692914D02*
X126724286Y-74740533D01*
X127666666Y-82931009D02*
X127333333Y-82931009D01*
X127333333Y-83454819D02*
X127333333Y-82454819D01*
X127333333Y-82454819D02*
X127809523Y-82454819D01*
X128714285Y-83454819D02*
X128142857Y-83454819D01*
X128428571Y-83454819D02*
X128428571Y-82454819D01*
X128428571Y-82454819D02*
X128333333Y-82597676D01*
X128333333Y-82597676D02*
X128238095Y-82692914D01*
X128238095Y-82692914D02*
X128142857Y-82740533D01*
X153944642Y-95859580D02*
X153897023Y-95907200D01*
X153897023Y-95907200D02*
X153754166Y-95954819D01*
X153754166Y-95954819D02*
X153658928Y-95954819D01*
X153658928Y-95954819D02*
X153516071Y-95907200D01*
X153516071Y-95907200D02*
X153420833Y-95811961D01*
X153420833Y-95811961D02*
X153373214Y-95716723D01*
X153373214Y-95716723D02*
X153325595Y-95526247D01*
X153325595Y-95526247D02*
X153325595Y-95383390D01*
X153325595Y-95383390D02*
X153373214Y-95192914D01*
X153373214Y-95192914D02*
X153420833Y-95097676D01*
X153420833Y-95097676D02*
X153516071Y-95002438D01*
X153516071Y-95002438D02*
X153658928Y-94954819D01*
X153658928Y-94954819D02*
X153754166Y-94954819D01*
X153754166Y-94954819D02*
X153897023Y-95002438D01*
X153897023Y-95002438D02*
X153944642Y-95050057D01*
X154897023Y-95954819D02*
X154325595Y-95954819D01*
X154611309Y-95954819D02*
X154611309Y-94954819D01*
X154611309Y-94954819D02*
X154516071Y-95097676D01*
X154516071Y-95097676D02*
X154420833Y-95192914D01*
X154420833Y-95192914D02*
X154325595Y-95240533D01*
X155230357Y-94954819D02*
X155897023Y-94954819D01*
X155897023Y-94954819D02*
X155468452Y-95954819D01*
X132457142Y-90166580D02*
X132409523Y-90214200D01*
X132409523Y-90214200D02*
X132266666Y-90261819D01*
X132266666Y-90261819D02*
X132171428Y-90261819D01*
X132171428Y-90261819D02*
X132028571Y-90214200D01*
X132028571Y-90214200D02*
X131933333Y-90118961D01*
X131933333Y-90118961D02*
X131885714Y-90023723D01*
X131885714Y-90023723D02*
X131838095Y-89833247D01*
X131838095Y-89833247D02*
X131838095Y-89690390D01*
X131838095Y-89690390D02*
X131885714Y-89499914D01*
X131885714Y-89499914D02*
X131933333Y-89404676D01*
X131933333Y-89404676D02*
X132028571Y-89309438D01*
X132028571Y-89309438D02*
X132171428Y-89261819D01*
X132171428Y-89261819D02*
X132266666Y-89261819D01*
X132266666Y-89261819D02*
X132409523Y-89309438D01*
X132409523Y-89309438D02*
X132457142Y-89357057D01*
X133409523Y-90261819D02*
X132838095Y-90261819D01*
X133123809Y-90261819D02*
X133123809Y-89261819D01*
X133123809Y-89261819D02*
X133028571Y-89404676D01*
X133028571Y-89404676D02*
X132933333Y-89499914D01*
X132933333Y-89499914D02*
X132838095Y-89547533D01*
X134028571Y-89261819D02*
X134123809Y-89261819D01*
X134123809Y-89261819D02*
X134219047Y-89309438D01*
X134219047Y-89309438D02*
X134266666Y-89357057D01*
X134266666Y-89357057D02*
X134314285Y-89452295D01*
X134314285Y-89452295D02*
X134361904Y-89642771D01*
X134361904Y-89642771D02*
X134361904Y-89880866D01*
X134361904Y-89880866D02*
X134314285Y-90071342D01*
X134314285Y-90071342D02*
X134266666Y-90166580D01*
X134266666Y-90166580D02*
X134219047Y-90214200D01*
X134219047Y-90214200D02*
X134123809Y-90261819D01*
X134123809Y-90261819D02*
X134028571Y-90261819D01*
X134028571Y-90261819D02*
X133933333Y-90214200D01*
X133933333Y-90214200D02*
X133885714Y-90166580D01*
X133885714Y-90166580D02*
X133838095Y-90071342D01*
X133838095Y-90071342D02*
X133790476Y-89880866D01*
X133790476Y-89880866D02*
X133790476Y-89642771D01*
X133790476Y-89642771D02*
X133838095Y-89452295D01*
X133838095Y-89452295D02*
X133885714Y-89357057D01*
X133885714Y-89357057D02*
X133933333Y-89309438D01*
X133933333Y-89309438D02*
X134028571Y-89261819D01*
X119737160Y-90312578D02*
X118737160Y-90312578D01*
X118737160Y-90312578D02*
X118737160Y-90074483D01*
X118737160Y-90074483D02*
X118784779Y-89931626D01*
X118784779Y-89931626D02*
X118880017Y-89836388D01*
X118880017Y-89836388D02*
X118975255Y-89788769D01*
X118975255Y-89788769D02*
X119165731Y-89741150D01*
X119165731Y-89741150D02*
X119308588Y-89741150D01*
X119308588Y-89741150D02*
X119499064Y-89788769D01*
X119499064Y-89788769D02*
X119594302Y-89836388D01*
X119594302Y-89836388D02*
X119689541Y-89931626D01*
X119689541Y-89931626D02*
X119737160Y-90074483D01*
X119737160Y-90074483D02*
X119737160Y-90312578D01*
X118832398Y-89360197D02*
X118784779Y-89312578D01*
X118784779Y-89312578D02*
X118737160Y-89217340D01*
X118737160Y-89217340D02*
X118737160Y-88979245D01*
X118737160Y-88979245D02*
X118784779Y-88884007D01*
X118784779Y-88884007D02*
X118832398Y-88836388D01*
X118832398Y-88836388D02*
X118927636Y-88788769D01*
X118927636Y-88788769D02*
X119022874Y-88788769D01*
X119022874Y-88788769D02*
X119165731Y-88836388D01*
X119165731Y-88836388D02*
X119737160Y-89407816D01*
X119737160Y-89407816D02*
X119737160Y-88788769D01*
X119715660Y-81790336D02*
X118715660Y-81790336D01*
X118715660Y-81790336D02*
X118715660Y-81552241D01*
X118715660Y-81552241D02*
X118763279Y-81409384D01*
X118763279Y-81409384D02*
X118858517Y-81314146D01*
X118858517Y-81314146D02*
X118953755Y-81266527D01*
X118953755Y-81266527D02*
X119144231Y-81218908D01*
X119144231Y-81218908D02*
X119287088Y-81218908D01*
X119287088Y-81218908D02*
X119477564Y-81266527D01*
X119477564Y-81266527D02*
X119572802Y-81314146D01*
X119572802Y-81314146D02*
X119668041Y-81409384D01*
X119668041Y-81409384D02*
X119715660Y-81552241D01*
X119715660Y-81552241D02*
X119715660Y-81790336D01*
X118715660Y-80885574D02*
X118715660Y-80266527D01*
X118715660Y-80266527D02*
X119096612Y-80599860D01*
X119096612Y-80599860D02*
X119096612Y-80457003D01*
X119096612Y-80457003D02*
X119144231Y-80361765D01*
X119144231Y-80361765D02*
X119191850Y-80314146D01*
X119191850Y-80314146D02*
X119287088Y-80266527D01*
X119287088Y-80266527D02*
X119525183Y-80266527D01*
X119525183Y-80266527D02*
X119620421Y-80314146D01*
X119620421Y-80314146D02*
X119668041Y-80361765D01*
X119668041Y-80361765D02*
X119715660Y-80457003D01*
X119715660Y-80457003D02*
X119715660Y-80742717D01*
X119715660Y-80742717D02*
X119668041Y-80837955D01*
X119668041Y-80837955D02*
X119620421Y-80885574D01*
X141039580Y-95378666D02*
X141087200Y-95426285D01*
X141087200Y-95426285D02*
X141134819Y-95569142D01*
X141134819Y-95569142D02*
X141134819Y-95664380D01*
X141134819Y-95664380D02*
X141087200Y-95807237D01*
X141087200Y-95807237D02*
X140991961Y-95902475D01*
X140991961Y-95902475D02*
X140896723Y-95950094D01*
X140896723Y-95950094D02*
X140706247Y-95997713D01*
X140706247Y-95997713D02*
X140563390Y-95997713D01*
X140563390Y-95997713D02*
X140372914Y-95950094D01*
X140372914Y-95950094D02*
X140277676Y-95902475D01*
X140277676Y-95902475D02*
X140182438Y-95807237D01*
X140182438Y-95807237D02*
X140134819Y-95664380D01*
X140134819Y-95664380D02*
X140134819Y-95569142D01*
X140134819Y-95569142D02*
X140182438Y-95426285D01*
X140182438Y-95426285D02*
X140230057Y-95378666D01*
X140468152Y-94521523D02*
X141134819Y-94521523D01*
X140087200Y-94759618D02*
X140801485Y-94997713D01*
X140801485Y-94997713D02*
X140801485Y-94378666D01*
X154964642Y-97359580D02*
X154917023Y-97407200D01*
X154917023Y-97407200D02*
X154774166Y-97454819D01*
X154774166Y-97454819D02*
X154678928Y-97454819D01*
X154678928Y-97454819D02*
X154536071Y-97407200D01*
X154536071Y-97407200D02*
X154440833Y-97311961D01*
X154440833Y-97311961D02*
X154393214Y-97216723D01*
X154393214Y-97216723D02*
X154345595Y-97026247D01*
X154345595Y-97026247D02*
X154345595Y-96883390D01*
X154345595Y-96883390D02*
X154393214Y-96692914D01*
X154393214Y-96692914D02*
X154440833Y-96597676D01*
X154440833Y-96597676D02*
X154536071Y-96502438D01*
X154536071Y-96502438D02*
X154678928Y-96454819D01*
X154678928Y-96454819D02*
X154774166Y-96454819D01*
X154774166Y-96454819D02*
X154917023Y-96502438D01*
X154917023Y-96502438D02*
X154964642Y-96550057D01*
X155917023Y-97454819D02*
X155345595Y-97454819D01*
X155631309Y-97454819D02*
X155631309Y-96454819D01*
X155631309Y-96454819D02*
X155536071Y-96597676D01*
X155536071Y-96597676D02*
X155440833Y-96692914D01*
X155440833Y-96692914D02*
X155345595Y-96740533D01*
X156774166Y-96454819D02*
X156583690Y-96454819D01*
X156583690Y-96454819D02*
X156488452Y-96502438D01*
X156488452Y-96502438D02*
X156440833Y-96550057D01*
X156440833Y-96550057D02*
X156345595Y-96692914D01*
X156345595Y-96692914D02*
X156297976Y-96883390D01*
X156297976Y-96883390D02*
X156297976Y-97264342D01*
X156297976Y-97264342D02*
X156345595Y-97359580D01*
X156345595Y-97359580D02*
X156393214Y-97407200D01*
X156393214Y-97407200D02*
X156488452Y-97454819D01*
X156488452Y-97454819D02*
X156678928Y-97454819D01*
X156678928Y-97454819D02*
X156774166Y-97407200D01*
X156774166Y-97407200D02*
X156821785Y-97359580D01*
X156821785Y-97359580D02*
X156869404Y-97264342D01*
X156869404Y-97264342D02*
X156869404Y-97026247D01*
X156869404Y-97026247D02*
X156821785Y-96931009D01*
X156821785Y-96931009D02*
X156774166Y-96883390D01*
X156774166Y-96883390D02*
X156678928Y-96835771D01*
X156678928Y-96835771D02*
X156488452Y-96835771D01*
X156488452Y-96835771D02*
X156393214Y-96883390D01*
X156393214Y-96883390D02*
X156345595Y-96931009D01*
X156345595Y-96931009D02*
X156297976Y-97026247D01*
X140166666Y-115954819D02*
X140166666Y-116669104D01*
X140166666Y-116669104D02*
X140119047Y-116811961D01*
X140119047Y-116811961D02*
X140023809Y-116907200D01*
X140023809Y-116907200D02*
X139880952Y-116954819D01*
X139880952Y-116954819D02*
X139785714Y-116954819D01*
X140547619Y-115954819D02*
X141166666Y-115954819D01*
X141166666Y-115954819D02*
X140833333Y-116335771D01*
X140833333Y-116335771D02*
X140976190Y-116335771D01*
X140976190Y-116335771D02*
X141071428Y-116383390D01*
X141071428Y-116383390D02*
X141119047Y-116431009D01*
X141119047Y-116431009D02*
X141166666Y-116526247D01*
X141166666Y-116526247D02*
X141166666Y-116764342D01*
X141166666Y-116764342D02*
X141119047Y-116859580D01*
X141119047Y-116859580D02*
X141071428Y-116907200D01*
X141071428Y-116907200D02*
X140976190Y-116954819D01*
X140976190Y-116954819D02*
X140690476Y-116954819D01*
X140690476Y-116954819D02*
X140595238Y-116907200D01*
X140595238Y-116907200D02*
X140547619Y-116859580D01*
X130052736Y-114636414D02*
X130100356Y-114684033D01*
X130100356Y-114684033D02*
X130147975Y-114826890D01*
X130147975Y-114826890D02*
X130147975Y-114922128D01*
X130147975Y-114922128D02*
X130100356Y-115064985D01*
X130100356Y-115064985D02*
X130005117Y-115160223D01*
X130005117Y-115160223D02*
X129909879Y-115207842D01*
X129909879Y-115207842D02*
X129719403Y-115255461D01*
X129719403Y-115255461D02*
X129576546Y-115255461D01*
X129576546Y-115255461D02*
X129386070Y-115207842D01*
X129386070Y-115207842D02*
X129290832Y-115160223D01*
X129290832Y-115160223D02*
X129195594Y-115064985D01*
X129195594Y-115064985D02*
X129147975Y-114922128D01*
X129147975Y-114922128D02*
X129147975Y-114826890D01*
X129147975Y-114826890D02*
X129195594Y-114684033D01*
X129195594Y-114684033D02*
X129243213Y-114636414D01*
X129243213Y-114255461D02*
X129195594Y-114207842D01*
X129195594Y-114207842D02*
X129147975Y-114112604D01*
X129147975Y-114112604D02*
X129147975Y-113874509D01*
X129147975Y-113874509D02*
X129195594Y-113779271D01*
X129195594Y-113779271D02*
X129243213Y-113731652D01*
X129243213Y-113731652D02*
X129338451Y-113684033D01*
X129338451Y-113684033D02*
X129433689Y-113684033D01*
X129433689Y-113684033D02*
X129576546Y-113731652D01*
X129576546Y-113731652D02*
X130147975Y-114303080D01*
X130147975Y-114303080D02*
X130147975Y-113684033D01*
X129147975Y-113064985D02*
X129147975Y-112969747D01*
X129147975Y-112969747D02*
X129195594Y-112874509D01*
X129195594Y-112874509D02*
X129243213Y-112826890D01*
X129243213Y-112826890D02*
X129338451Y-112779271D01*
X129338451Y-112779271D02*
X129528927Y-112731652D01*
X129528927Y-112731652D02*
X129767022Y-112731652D01*
X129767022Y-112731652D02*
X129957498Y-112779271D01*
X129957498Y-112779271D02*
X130052736Y-112826890D01*
X130052736Y-112826890D02*
X130100356Y-112874509D01*
X130100356Y-112874509D02*
X130147975Y-112969747D01*
X130147975Y-112969747D02*
X130147975Y-113064985D01*
X130147975Y-113064985D02*
X130100356Y-113160223D01*
X130100356Y-113160223D02*
X130052736Y-113207842D01*
X130052736Y-113207842D02*
X129957498Y-113255461D01*
X129957498Y-113255461D02*
X129767022Y-113303080D01*
X129767022Y-113303080D02*
X129528927Y-113303080D01*
X129528927Y-113303080D02*
X129338451Y-113255461D01*
X129338451Y-113255461D02*
X129243213Y-113207842D01*
X129243213Y-113207842D02*
X129195594Y-113160223D01*
X129195594Y-113160223D02*
X129147975Y-113064985D01*
X136647664Y-93236584D02*
X136171473Y-93569917D01*
X136647664Y-93808012D02*
X135647664Y-93808012D01*
X135647664Y-93808012D02*
X135647664Y-93427060D01*
X135647664Y-93427060D02*
X135695283Y-93331822D01*
X135695283Y-93331822D02*
X135742902Y-93284203D01*
X135742902Y-93284203D02*
X135838140Y-93236584D01*
X135838140Y-93236584D02*
X135980997Y-93236584D01*
X135980997Y-93236584D02*
X136076235Y-93284203D01*
X136076235Y-93284203D02*
X136123854Y-93331822D01*
X136123854Y-93331822D02*
X136171473Y-93427060D01*
X136171473Y-93427060D02*
X136171473Y-93808012D01*
X135647664Y-92331822D02*
X135647664Y-92808012D01*
X135647664Y-92808012D02*
X136123854Y-92855631D01*
X136123854Y-92855631D02*
X136076235Y-92808012D01*
X136076235Y-92808012D02*
X136028616Y-92712774D01*
X136028616Y-92712774D02*
X136028616Y-92474679D01*
X136028616Y-92474679D02*
X136076235Y-92379441D01*
X136076235Y-92379441D02*
X136123854Y-92331822D01*
X136123854Y-92331822D02*
X136219092Y-92284203D01*
X136219092Y-92284203D02*
X136457187Y-92284203D01*
X136457187Y-92284203D02*
X136552425Y-92331822D01*
X136552425Y-92331822D02*
X136600045Y-92379441D01*
X136600045Y-92379441D02*
X136647664Y-92474679D01*
X136647664Y-92474679D02*
X136647664Y-92712774D01*
X136647664Y-92712774D02*
X136600045Y-92808012D01*
X136600045Y-92808012D02*
X136552425Y-92855631D01*
X154859580Y-113642857D02*
X154907200Y-113690476D01*
X154907200Y-113690476D02*
X154954819Y-113833333D01*
X154954819Y-113833333D02*
X154954819Y-113928571D01*
X154954819Y-113928571D02*
X154907200Y-114071428D01*
X154907200Y-114071428D02*
X154811961Y-114166666D01*
X154811961Y-114166666D02*
X154716723Y-114214285D01*
X154716723Y-114214285D02*
X154526247Y-114261904D01*
X154526247Y-114261904D02*
X154383390Y-114261904D01*
X154383390Y-114261904D02*
X154192914Y-114214285D01*
X154192914Y-114214285D02*
X154097676Y-114166666D01*
X154097676Y-114166666D02*
X154002438Y-114071428D01*
X154002438Y-114071428D02*
X153954819Y-113928571D01*
X153954819Y-113928571D02*
X153954819Y-113833333D01*
X153954819Y-113833333D02*
X154002438Y-113690476D01*
X154002438Y-113690476D02*
X154050057Y-113642857D01*
X154954819Y-112690476D02*
X154954819Y-113261904D01*
X154954819Y-112976190D02*
X153954819Y-112976190D01*
X153954819Y-112976190D02*
X154097676Y-113071428D01*
X154097676Y-113071428D02*
X154192914Y-113166666D01*
X154192914Y-113166666D02*
X154240533Y-113261904D01*
X154954819Y-112214285D02*
X154954819Y-112023809D01*
X154954819Y-112023809D02*
X154907200Y-111928571D01*
X154907200Y-111928571D02*
X154859580Y-111880952D01*
X154859580Y-111880952D02*
X154716723Y-111785714D01*
X154716723Y-111785714D02*
X154526247Y-111738095D01*
X154526247Y-111738095D02*
X154145295Y-111738095D01*
X154145295Y-111738095D02*
X154050057Y-111785714D01*
X154050057Y-111785714D02*
X154002438Y-111833333D01*
X154002438Y-111833333D02*
X153954819Y-111928571D01*
X153954819Y-111928571D02*
X153954819Y-112119047D01*
X153954819Y-112119047D02*
X154002438Y-112214285D01*
X154002438Y-112214285D02*
X154050057Y-112261904D01*
X154050057Y-112261904D02*
X154145295Y-112309523D01*
X154145295Y-112309523D02*
X154383390Y-112309523D01*
X154383390Y-112309523D02*
X154478628Y-112261904D01*
X154478628Y-112261904D02*
X154526247Y-112214285D01*
X154526247Y-112214285D02*
X154573866Y-112119047D01*
X154573866Y-112119047D02*
X154573866Y-111928571D01*
X154573866Y-111928571D02*
X154526247Y-111833333D01*
X154526247Y-111833333D02*
X154478628Y-111785714D01*
X154478628Y-111785714D02*
X154383390Y-111738095D01*
X117794943Y-81740317D02*
X116794943Y-81740317D01*
X116794943Y-81740317D02*
X116794943Y-81502222D01*
X116794943Y-81502222D02*
X116842562Y-81359365D01*
X116842562Y-81359365D02*
X116937800Y-81264127D01*
X116937800Y-81264127D02*
X117033038Y-81216508D01*
X117033038Y-81216508D02*
X117223514Y-81168889D01*
X117223514Y-81168889D02*
X117366371Y-81168889D01*
X117366371Y-81168889D02*
X117556847Y-81216508D01*
X117556847Y-81216508D02*
X117652085Y-81264127D01*
X117652085Y-81264127D02*
X117747324Y-81359365D01*
X117747324Y-81359365D02*
X117794943Y-81502222D01*
X117794943Y-81502222D02*
X117794943Y-81740317D01*
X116794943Y-80264127D02*
X116794943Y-80740317D01*
X116794943Y-80740317D02*
X117271133Y-80787936D01*
X117271133Y-80787936D02*
X117223514Y-80740317D01*
X117223514Y-80740317D02*
X117175895Y-80645079D01*
X117175895Y-80645079D02*
X117175895Y-80406984D01*
X117175895Y-80406984D02*
X117223514Y-80311746D01*
X117223514Y-80311746D02*
X117271133Y-80264127D01*
X117271133Y-80264127D02*
X117366371Y-80216508D01*
X117366371Y-80216508D02*
X117604466Y-80216508D01*
X117604466Y-80216508D02*
X117699704Y-80264127D01*
X117699704Y-80264127D02*
X117747324Y-80311746D01*
X117747324Y-80311746D02*
X117794943Y-80406984D01*
X117794943Y-80406984D02*
X117794943Y-80645079D01*
X117794943Y-80645079D02*
X117747324Y-80740317D01*
X117747324Y-80740317D02*
X117699704Y-80787936D01*
X135833333Y-91454819D02*
X135500000Y-90978628D01*
X135261905Y-91454819D02*
X135261905Y-90454819D01*
X135261905Y-90454819D02*
X135642857Y-90454819D01*
X135642857Y-90454819D02*
X135738095Y-90502438D01*
X135738095Y-90502438D02*
X135785714Y-90550057D01*
X135785714Y-90550057D02*
X135833333Y-90645295D01*
X135833333Y-90645295D02*
X135833333Y-90788152D01*
X135833333Y-90788152D02*
X135785714Y-90883390D01*
X135785714Y-90883390D02*
X135738095Y-90931009D01*
X135738095Y-90931009D02*
X135642857Y-90978628D01*
X135642857Y-90978628D02*
X135261905Y-90978628D01*
X136690476Y-90454819D02*
X136500000Y-90454819D01*
X136500000Y-90454819D02*
X136404762Y-90502438D01*
X136404762Y-90502438D02*
X136357143Y-90550057D01*
X136357143Y-90550057D02*
X136261905Y-90692914D01*
X136261905Y-90692914D02*
X136214286Y-90883390D01*
X136214286Y-90883390D02*
X136214286Y-91264342D01*
X136214286Y-91264342D02*
X136261905Y-91359580D01*
X136261905Y-91359580D02*
X136309524Y-91407200D01*
X136309524Y-91407200D02*
X136404762Y-91454819D01*
X136404762Y-91454819D02*
X136595238Y-91454819D01*
X136595238Y-91454819D02*
X136690476Y-91407200D01*
X136690476Y-91407200D02*
X136738095Y-91359580D01*
X136738095Y-91359580D02*
X136785714Y-91264342D01*
X136785714Y-91264342D02*
X136785714Y-91026247D01*
X136785714Y-91026247D02*
X136738095Y-90931009D01*
X136738095Y-90931009D02*
X136690476Y-90883390D01*
X136690476Y-90883390D02*
X136595238Y-90835771D01*
X136595238Y-90835771D02*
X136404762Y-90835771D01*
X136404762Y-90835771D02*
X136309524Y-90883390D01*
X136309524Y-90883390D02*
X136261905Y-90931009D01*
X136261905Y-90931009D02*
X136214286Y-91026247D01*
X117166666Y-116454819D02*
X117166666Y-117169104D01*
X117166666Y-117169104D02*
X117119047Y-117311961D01*
X117119047Y-117311961D02*
X117023809Y-117407200D01*
X117023809Y-117407200D02*
X116880952Y-117454819D01*
X116880952Y-117454819D02*
X116785714Y-117454819D01*
X118071428Y-116788152D02*
X118071428Y-117454819D01*
X117833333Y-116407200D02*
X117595238Y-117121485D01*
X117595238Y-117121485D02*
X118214285Y-117121485D01*
X153359580Y-114662857D02*
X153407200Y-114710476D01*
X153407200Y-114710476D02*
X153454819Y-114853333D01*
X153454819Y-114853333D02*
X153454819Y-114948571D01*
X153454819Y-114948571D02*
X153407200Y-115091428D01*
X153407200Y-115091428D02*
X153311961Y-115186666D01*
X153311961Y-115186666D02*
X153216723Y-115234285D01*
X153216723Y-115234285D02*
X153026247Y-115281904D01*
X153026247Y-115281904D02*
X152883390Y-115281904D01*
X152883390Y-115281904D02*
X152692914Y-115234285D01*
X152692914Y-115234285D02*
X152597676Y-115186666D01*
X152597676Y-115186666D02*
X152502438Y-115091428D01*
X152502438Y-115091428D02*
X152454819Y-114948571D01*
X152454819Y-114948571D02*
X152454819Y-114853333D01*
X152454819Y-114853333D02*
X152502438Y-114710476D01*
X152502438Y-114710476D02*
X152550057Y-114662857D01*
X153454819Y-113710476D02*
X153454819Y-114281904D01*
X153454819Y-113996190D02*
X152454819Y-113996190D01*
X152454819Y-113996190D02*
X152597676Y-114091428D01*
X152597676Y-114091428D02*
X152692914Y-114186666D01*
X152692914Y-114186666D02*
X152740533Y-114281904D01*
X152883390Y-113139047D02*
X152835771Y-113234285D01*
X152835771Y-113234285D02*
X152788152Y-113281904D01*
X152788152Y-113281904D02*
X152692914Y-113329523D01*
X152692914Y-113329523D02*
X152645295Y-113329523D01*
X152645295Y-113329523D02*
X152550057Y-113281904D01*
X152550057Y-113281904D02*
X152502438Y-113234285D01*
X152502438Y-113234285D02*
X152454819Y-113139047D01*
X152454819Y-113139047D02*
X152454819Y-112948571D01*
X152454819Y-112948571D02*
X152502438Y-112853333D01*
X152502438Y-112853333D02*
X152550057Y-112805714D01*
X152550057Y-112805714D02*
X152645295Y-112758095D01*
X152645295Y-112758095D02*
X152692914Y-112758095D01*
X152692914Y-112758095D02*
X152788152Y-112805714D01*
X152788152Y-112805714D02*
X152835771Y-112853333D01*
X152835771Y-112853333D02*
X152883390Y-112948571D01*
X152883390Y-112948571D02*
X152883390Y-113139047D01*
X152883390Y-113139047D02*
X152931009Y-113234285D01*
X152931009Y-113234285D02*
X152978628Y-113281904D01*
X152978628Y-113281904D02*
X153073866Y-113329523D01*
X153073866Y-113329523D02*
X153264342Y-113329523D01*
X153264342Y-113329523D02*
X153359580Y-113281904D01*
X153359580Y-113281904D02*
X153407200Y-113234285D01*
X153407200Y-113234285D02*
X153454819Y-113139047D01*
X153454819Y-113139047D02*
X153454819Y-112948571D01*
X153454819Y-112948571D02*
X153407200Y-112853333D01*
X153407200Y-112853333D02*
X153359580Y-112805714D01*
X153359580Y-112805714D02*
X153264342Y-112758095D01*
X153264342Y-112758095D02*
X153073866Y-112758095D01*
X153073866Y-112758095D02*
X152978628Y-112805714D01*
X152978628Y-112805714D02*
X152931009Y-112853333D01*
X152931009Y-112853333D02*
X152883390Y-112948571D01*
X160954819Y-111333333D02*
X161669104Y-111333333D01*
X161669104Y-111333333D02*
X161811961Y-111380952D01*
X161811961Y-111380952D02*
X161907200Y-111476190D01*
X161907200Y-111476190D02*
X161954819Y-111619047D01*
X161954819Y-111619047D02*
X161954819Y-111714285D01*
X161050057Y-110904761D02*
X161002438Y-110857142D01*
X161002438Y-110857142D02*
X160954819Y-110761904D01*
X160954819Y-110761904D02*
X160954819Y-110523809D01*
X160954819Y-110523809D02*
X161002438Y-110428571D01*
X161002438Y-110428571D02*
X161050057Y-110380952D01*
X161050057Y-110380952D02*
X161145295Y-110333333D01*
X161145295Y-110333333D02*
X161240533Y-110333333D01*
X161240533Y-110333333D02*
X161383390Y-110380952D01*
X161383390Y-110380952D02*
X161954819Y-110952380D01*
X161954819Y-110952380D02*
X161954819Y-110333333D01*
X121737160Y-89241150D02*
X121260969Y-89574483D01*
X121737160Y-89812578D02*
X120737160Y-89812578D01*
X120737160Y-89812578D02*
X120737160Y-89431626D01*
X120737160Y-89431626D02*
X120784779Y-89336388D01*
X120784779Y-89336388D02*
X120832398Y-89288769D01*
X120832398Y-89288769D02*
X120927636Y-89241150D01*
X120927636Y-89241150D02*
X121070493Y-89241150D01*
X121070493Y-89241150D02*
X121165731Y-89288769D01*
X121165731Y-89288769D02*
X121213350Y-89336388D01*
X121213350Y-89336388D02*
X121260969Y-89431626D01*
X121260969Y-89431626D02*
X121260969Y-89812578D01*
X121165731Y-88669721D02*
X121118112Y-88764959D01*
X121118112Y-88764959D02*
X121070493Y-88812578D01*
X121070493Y-88812578D02*
X120975255Y-88860197D01*
X120975255Y-88860197D02*
X120927636Y-88860197D01*
X120927636Y-88860197D02*
X120832398Y-88812578D01*
X120832398Y-88812578D02*
X120784779Y-88764959D01*
X120784779Y-88764959D02*
X120737160Y-88669721D01*
X120737160Y-88669721D02*
X120737160Y-88479245D01*
X120737160Y-88479245D02*
X120784779Y-88384007D01*
X120784779Y-88384007D02*
X120832398Y-88336388D01*
X120832398Y-88336388D02*
X120927636Y-88288769D01*
X120927636Y-88288769D02*
X120975255Y-88288769D01*
X120975255Y-88288769D02*
X121070493Y-88336388D01*
X121070493Y-88336388D02*
X121118112Y-88384007D01*
X121118112Y-88384007D02*
X121165731Y-88479245D01*
X121165731Y-88479245D02*
X121165731Y-88669721D01*
X121165731Y-88669721D02*
X121213350Y-88764959D01*
X121213350Y-88764959D02*
X121260969Y-88812578D01*
X121260969Y-88812578D02*
X121356207Y-88860197D01*
X121356207Y-88860197D02*
X121546683Y-88860197D01*
X121546683Y-88860197D02*
X121641921Y-88812578D01*
X121641921Y-88812578D02*
X121689541Y-88764959D01*
X121689541Y-88764959D02*
X121737160Y-88669721D01*
X121737160Y-88669721D02*
X121737160Y-88479245D01*
X121737160Y-88479245D02*
X121689541Y-88384007D01*
X121689541Y-88384007D02*
X121641921Y-88336388D01*
X121641921Y-88336388D02*
X121546683Y-88288769D01*
X121546683Y-88288769D02*
X121356207Y-88288769D01*
X121356207Y-88288769D02*
X121260969Y-88336388D01*
X121260969Y-88336388D02*
X121213350Y-88384007D01*
X121213350Y-88384007D02*
X121165731Y-88479245D01*
X145702422Y-113034062D02*
X145702422Y-113843585D01*
X145702422Y-113843585D02*
X145750041Y-113938823D01*
X145750041Y-113938823D02*
X145797660Y-113986443D01*
X145797660Y-113986443D02*
X145892898Y-114034062D01*
X145892898Y-114034062D02*
X146083374Y-114034062D01*
X146083374Y-114034062D02*
X146178612Y-113986443D01*
X146178612Y-113986443D02*
X146226231Y-113938823D01*
X146226231Y-113938823D02*
X146273850Y-113843585D01*
X146273850Y-113843585D02*
X146273850Y-113034062D01*
X147178612Y-113367395D02*
X147178612Y-114034062D01*
X146940517Y-112986443D02*
X146702422Y-113700728D01*
X146702422Y-113700728D02*
X147321469Y-113700728D01*
X154944642Y-105954819D02*
X154611309Y-105478628D01*
X154373214Y-105954819D02*
X154373214Y-104954819D01*
X154373214Y-104954819D02*
X154754166Y-104954819D01*
X154754166Y-104954819D02*
X154849404Y-105002438D01*
X154849404Y-105002438D02*
X154897023Y-105050057D01*
X154897023Y-105050057D02*
X154944642Y-105145295D01*
X154944642Y-105145295D02*
X154944642Y-105288152D01*
X154944642Y-105288152D02*
X154897023Y-105383390D01*
X154897023Y-105383390D02*
X154849404Y-105431009D01*
X154849404Y-105431009D02*
X154754166Y-105478628D01*
X154754166Y-105478628D02*
X154373214Y-105478628D01*
X155897023Y-105954819D02*
X155325595Y-105954819D01*
X155611309Y-105954819D02*
X155611309Y-104954819D01*
X155611309Y-104954819D02*
X155516071Y-105097676D01*
X155516071Y-105097676D02*
X155420833Y-105192914D01*
X155420833Y-105192914D02*
X155325595Y-105240533D01*
X156516071Y-104954819D02*
X156611309Y-104954819D01*
X156611309Y-104954819D02*
X156706547Y-105002438D01*
X156706547Y-105002438D02*
X156754166Y-105050057D01*
X156754166Y-105050057D02*
X156801785Y-105145295D01*
X156801785Y-105145295D02*
X156849404Y-105335771D01*
X156849404Y-105335771D02*
X156849404Y-105573866D01*
X156849404Y-105573866D02*
X156801785Y-105764342D01*
X156801785Y-105764342D02*
X156754166Y-105859580D01*
X156754166Y-105859580D02*
X156706547Y-105907200D01*
X156706547Y-105907200D02*
X156611309Y-105954819D01*
X156611309Y-105954819D02*
X156516071Y-105954819D01*
X156516071Y-105954819D02*
X156420833Y-105907200D01*
X156420833Y-105907200D02*
X156373214Y-105859580D01*
X156373214Y-105859580D02*
X156325595Y-105764342D01*
X156325595Y-105764342D02*
X156277976Y-105573866D01*
X156277976Y-105573866D02*
X156277976Y-105335771D01*
X156277976Y-105335771D02*
X156325595Y-105145295D01*
X156325595Y-105145295D02*
X156373214Y-105050057D01*
X156373214Y-105050057D02*
X156420833Y-105002438D01*
X156420833Y-105002438D02*
X156516071Y-104954819D01*
X119337142Y-94404819D02*
X119003809Y-93928628D01*
X118765714Y-94404819D02*
X118765714Y-93404819D01*
X118765714Y-93404819D02*
X119146666Y-93404819D01*
X119146666Y-93404819D02*
X119241904Y-93452438D01*
X119241904Y-93452438D02*
X119289523Y-93500057D01*
X119289523Y-93500057D02*
X119337142Y-93595295D01*
X119337142Y-93595295D02*
X119337142Y-93738152D01*
X119337142Y-93738152D02*
X119289523Y-93833390D01*
X119289523Y-93833390D02*
X119241904Y-93881009D01*
X119241904Y-93881009D02*
X119146666Y-93928628D01*
X119146666Y-93928628D02*
X118765714Y-93928628D01*
X120289523Y-94404819D02*
X119718095Y-94404819D01*
X120003809Y-94404819D02*
X120003809Y-93404819D01*
X120003809Y-93404819D02*
X119908571Y-93547676D01*
X119908571Y-93547676D02*
X119813333Y-93642914D01*
X119813333Y-93642914D02*
X119718095Y-93690533D01*
X120622857Y-93404819D02*
X121241904Y-93404819D01*
X121241904Y-93404819D02*
X120908571Y-93785771D01*
X120908571Y-93785771D02*
X121051428Y-93785771D01*
X121051428Y-93785771D02*
X121146666Y-93833390D01*
X121146666Y-93833390D02*
X121194285Y-93881009D01*
X121194285Y-93881009D02*
X121241904Y-93976247D01*
X121241904Y-93976247D02*
X121241904Y-94214342D01*
X121241904Y-94214342D02*
X121194285Y-94309580D01*
X121194285Y-94309580D02*
X121146666Y-94357200D01*
X121146666Y-94357200D02*
X121051428Y-94404819D01*
X121051428Y-94404819D02*
X120765714Y-94404819D01*
X120765714Y-94404819D02*
X120670476Y-94357200D01*
X120670476Y-94357200D02*
X120622857Y-94309580D01*
X117774936Y-90291643D02*
X116774936Y-90291643D01*
X116774936Y-90291643D02*
X116774936Y-90053548D01*
X116774936Y-90053548D02*
X116822555Y-89910691D01*
X116822555Y-89910691D02*
X116917793Y-89815453D01*
X116917793Y-89815453D02*
X117013031Y-89767834D01*
X117013031Y-89767834D02*
X117203507Y-89720215D01*
X117203507Y-89720215D02*
X117346364Y-89720215D01*
X117346364Y-89720215D02*
X117536840Y-89767834D01*
X117536840Y-89767834D02*
X117632078Y-89815453D01*
X117632078Y-89815453D02*
X117727317Y-89910691D01*
X117727317Y-89910691D02*
X117774936Y-90053548D01*
X117774936Y-90053548D02*
X117774936Y-90291643D01*
X117108269Y-88863072D02*
X117774936Y-88863072D01*
X116727317Y-89101167D02*
X117441602Y-89339262D01*
X117441602Y-89339262D02*
X117441602Y-88720215D01*
X130513333Y-99571580D02*
X130465714Y-99619200D01*
X130465714Y-99619200D02*
X130322857Y-99666819D01*
X130322857Y-99666819D02*
X130227619Y-99666819D01*
X130227619Y-99666819D02*
X130084762Y-99619200D01*
X130084762Y-99619200D02*
X129989524Y-99523961D01*
X129989524Y-99523961D02*
X129941905Y-99428723D01*
X129941905Y-99428723D02*
X129894286Y-99238247D01*
X129894286Y-99238247D02*
X129894286Y-99095390D01*
X129894286Y-99095390D02*
X129941905Y-98904914D01*
X129941905Y-98904914D02*
X129989524Y-98809676D01*
X129989524Y-98809676D02*
X130084762Y-98714438D01*
X130084762Y-98714438D02*
X130227619Y-98666819D01*
X130227619Y-98666819D02*
X130322857Y-98666819D01*
X130322857Y-98666819D02*
X130465714Y-98714438D01*
X130465714Y-98714438D02*
X130513333Y-98762057D01*
X130989524Y-99666819D02*
X131180000Y-99666819D01*
X131180000Y-99666819D02*
X131275238Y-99619200D01*
X131275238Y-99619200D02*
X131322857Y-99571580D01*
X131322857Y-99571580D02*
X131418095Y-99428723D01*
X131418095Y-99428723D02*
X131465714Y-99238247D01*
X131465714Y-99238247D02*
X131465714Y-98857295D01*
X131465714Y-98857295D02*
X131418095Y-98762057D01*
X131418095Y-98762057D02*
X131370476Y-98714438D01*
X131370476Y-98714438D02*
X131275238Y-98666819D01*
X131275238Y-98666819D02*
X131084762Y-98666819D01*
X131084762Y-98666819D02*
X130989524Y-98714438D01*
X130989524Y-98714438D02*
X130941905Y-98762057D01*
X130941905Y-98762057D02*
X130894286Y-98857295D01*
X130894286Y-98857295D02*
X130894286Y-99095390D01*
X130894286Y-99095390D02*
X130941905Y-99190628D01*
X130941905Y-99190628D02*
X130989524Y-99238247D01*
X130989524Y-99238247D02*
X131084762Y-99285866D01*
X131084762Y-99285866D02*
X131275238Y-99285866D01*
X131275238Y-99285866D02*
X131370476Y-99238247D01*
X131370476Y-99238247D02*
X131418095Y-99190628D01*
X131418095Y-99190628D02*
X131465714Y-99095390D01*
X131552736Y-113636414D02*
X131600356Y-113684033D01*
X131600356Y-113684033D02*
X131647975Y-113826890D01*
X131647975Y-113826890D02*
X131647975Y-113922128D01*
X131647975Y-113922128D02*
X131600356Y-114064985D01*
X131600356Y-114064985D02*
X131505117Y-114160223D01*
X131505117Y-114160223D02*
X131409879Y-114207842D01*
X131409879Y-114207842D02*
X131219403Y-114255461D01*
X131219403Y-114255461D02*
X131076546Y-114255461D01*
X131076546Y-114255461D02*
X130886070Y-114207842D01*
X130886070Y-114207842D02*
X130790832Y-114160223D01*
X130790832Y-114160223D02*
X130695594Y-114064985D01*
X130695594Y-114064985D02*
X130647975Y-113922128D01*
X130647975Y-113922128D02*
X130647975Y-113826890D01*
X130647975Y-113826890D02*
X130695594Y-113684033D01*
X130695594Y-113684033D02*
X130743213Y-113636414D01*
X130743213Y-113255461D02*
X130695594Y-113207842D01*
X130695594Y-113207842D02*
X130647975Y-113112604D01*
X130647975Y-113112604D02*
X130647975Y-112874509D01*
X130647975Y-112874509D02*
X130695594Y-112779271D01*
X130695594Y-112779271D02*
X130743213Y-112731652D01*
X130743213Y-112731652D02*
X130838451Y-112684033D01*
X130838451Y-112684033D02*
X130933689Y-112684033D01*
X130933689Y-112684033D02*
X131076546Y-112731652D01*
X131076546Y-112731652D02*
X131647975Y-113303080D01*
X131647975Y-113303080D02*
X131647975Y-112684033D01*
X131647975Y-111731652D02*
X131647975Y-112303080D01*
X131647975Y-112017366D02*
X130647975Y-112017366D01*
X130647975Y-112017366D02*
X130790832Y-112112604D01*
X130790832Y-112112604D02*
X130886070Y-112207842D01*
X130886070Y-112207842D02*
X130933689Y-112303080D01*
X124761905Y-86954819D02*
X124761905Y-85954819D01*
X124761905Y-85954819D02*
X125000000Y-85954819D01*
X125000000Y-85954819D02*
X125142857Y-86002438D01*
X125142857Y-86002438D02*
X125238095Y-86097676D01*
X125238095Y-86097676D02*
X125285714Y-86192914D01*
X125285714Y-86192914D02*
X125333333Y-86383390D01*
X125333333Y-86383390D02*
X125333333Y-86526247D01*
X125333333Y-86526247D02*
X125285714Y-86716723D01*
X125285714Y-86716723D02*
X125238095Y-86811961D01*
X125238095Y-86811961D02*
X125142857Y-86907200D01*
X125142857Y-86907200D02*
X125000000Y-86954819D01*
X125000000Y-86954819D02*
X124761905Y-86954819D01*
X126285714Y-86954819D02*
X125714286Y-86954819D01*
X126000000Y-86954819D02*
X126000000Y-85954819D01*
X126000000Y-85954819D02*
X125904762Y-86097676D01*
X125904762Y-86097676D02*
X125809524Y-86192914D01*
X125809524Y-86192914D02*
X125714286Y-86240533D01*
X137333333Y-88454819D02*
X137000000Y-87978628D01*
X136761905Y-88454819D02*
X136761905Y-87454819D01*
X136761905Y-87454819D02*
X137142857Y-87454819D01*
X137142857Y-87454819D02*
X137238095Y-87502438D01*
X137238095Y-87502438D02*
X137285714Y-87550057D01*
X137285714Y-87550057D02*
X137333333Y-87645295D01*
X137333333Y-87645295D02*
X137333333Y-87788152D01*
X137333333Y-87788152D02*
X137285714Y-87883390D01*
X137285714Y-87883390D02*
X137238095Y-87931009D01*
X137238095Y-87931009D02*
X137142857Y-87978628D01*
X137142857Y-87978628D02*
X136761905Y-87978628D01*
X137666667Y-87454819D02*
X138333333Y-87454819D01*
X138333333Y-87454819D02*
X137904762Y-88454819D01*
X123703809Y-102190628D02*
X123703809Y-102666819D01*
X123370476Y-101666819D02*
X123703809Y-102190628D01*
X123703809Y-102190628D02*
X124037142Y-101666819D01*
X124894285Y-102666819D02*
X124322857Y-102666819D01*
X124608571Y-102666819D02*
X124608571Y-101666819D01*
X124608571Y-101666819D02*
X124513333Y-101809676D01*
X124513333Y-101809676D02*
X124418095Y-101904914D01*
X124418095Y-101904914D02*
X124322857Y-101952533D01*
X143024285Y-114071524D02*
X142548094Y-114404857D01*
X143024285Y-114642952D02*
X142024285Y-114642952D01*
X142024285Y-114642952D02*
X142024285Y-114262000D01*
X142024285Y-114262000D02*
X142071904Y-114166762D01*
X142071904Y-114166762D02*
X142119523Y-114119143D01*
X142119523Y-114119143D02*
X142214761Y-114071524D01*
X142214761Y-114071524D02*
X142357618Y-114071524D01*
X142357618Y-114071524D02*
X142452856Y-114119143D01*
X142452856Y-114119143D02*
X142500475Y-114166762D01*
X142500475Y-114166762D02*
X142548094Y-114262000D01*
X142548094Y-114262000D02*
X142548094Y-114642952D01*
X143024285Y-113119143D02*
X143024285Y-113690571D01*
X143024285Y-113404857D02*
X142024285Y-113404857D01*
X142024285Y-113404857D02*
X142167142Y-113500095D01*
X142167142Y-113500095D02*
X142262380Y-113595333D01*
X142262380Y-113595333D02*
X142309999Y-113690571D01*
X143024285Y-112166762D02*
X143024285Y-112738190D01*
X143024285Y-112452476D02*
X142024285Y-112452476D01*
X142024285Y-112452476D02*
X142167142Y-112547714D01*
X142167142Y-112547714D02*
X142262380Y-112642952D01*
X142262380Y-112642952D02*
X142309999Y-112738190D01*
X119337142Y-95859580D02*
X119289523Y-95907200D01*
X119289523Y-95907200D02*
X119146666Y-95954819D01*
X119146666Y-95954819D02*
X119051428Y-95954819D01*
X119051428Y-95954819D02*
X118908571Y-95907200D01*
X118908571Y-95907200D02*
X118813333Y-95811961D01*
X118813333Y-95811961D02*
X118765714Y-95716723D01*
X118765714Y-95716723D02*
X118718095Y-95526247D01*
X118718095Y-95526247D02*
X118718095Y-95383390D01*
X118718095Y-95383390D02*
X118765714Y-95192914D01*
X118765714Y-95192914D02*
X118813333Y-95097676D01*
X118813333Y-95097676D02*
X118908571Y-95002438D01*
X118908571Y-95002438D02*
X119051428Y-94954819D01*
X119051428Y-94954819D02*
X119146666Y-94954819D01*
X119146666Y-94954819D02*
X119289523Y-95002438D01*
X119289523Y-95002438D02*
X119337142Y-95050057D01*
X120289523Y-95954819D02*
X119718095Y-95954819D01*
X120003809Y-95954819D02*
X120003809Y-94954819D01*
X120003809Y-94954819D02*
X119908571Y-95097676D01*
X119908571Y-95097676D02*
X119813333Y-95192914D01*
X119813333Y-95192914D02*
X119718095Y-95240533D01*
X121194285Y-94954819D02*
X120718095Y-94954819D01*
X120718095Y-94954819D02*
X120670476Y-95431009D01*
X120670476Y-95431009D02*
X120718095Y-95383390D01*
X120718095Y-95383390D02*
X120813333Y-95335771D01*
X120813333Y-95335771D02*
X121051428Y-95335771D01*
X121051428Y-95335771D02*
X121146666Y-95383390D01*
X121146666Y-95383390D02*
X121194285Y-95431009D01*
X121194285Y-95431009D02*
X121241904Y-95526247D01*
X121241904Y-95526247D02*
X121241904Y-95764342D01*
X121241904Y-95764342D02*
X121194285Y-95859580D01*
X121194285Y-95859580D02*
X121146666Y-95907200D01*
X121146666Y-95907200D02*
X121051428Y-95954819D01*
X121051428Y-95954819D02*
X120813333Y-95954819D01*
X120813333Y-95954819D02*
X120718095Y-95907200D01*
X120718095Y-95907200D02*
X120670476Y-95859580D01*
X143859580Y-109686666D02*
X143907200Y-109734285D01*
X143907200Y-109734285D02*
X143954819Y-109877142D01*
X143954819Y-109877142D02*
X143954819Y-109972380D01*
X143954819Y-109972380D02*
X143907200Y-110115237D01*
X143907200Y-110115237D02*
X143811961Y-110210475D01*
X143811961Y-110210475D02*
X143716723Y-110258094D01*
X143716723Y-110258094D02*
X143526247Y-110305713D01*
X143526247Y-110305713D02*
X143383390Y-110305713D01*
X143383390Y-110305713D02*
X143192914Y-110258094D01*
X143192914Y-110258094D02*
X143097676Y-110210475D01*
X143097676Y-110210475D02*
X143002438Y-110115237D01*
X143002438Y-110115237D02*
X142954819Y-109972380D01*
X142954819Y-109972380D02*
X142954819Y-109877142D01*
X142954819Y-109877142D02*
X143002438Y-109734285D01*
X143002438Y-109734285D02*
X143050057Y-109686666D01*
X142954819Y-109353332D02*
X142954819Y-108686666D01*
X142954819Y-108686666D02*
X143954819Y-109115237D01*
X139539580Y-95378666D02*
X139587200Y-95426285D01*
X139587200Y-95426285D02*
X139634819Y-95569142D01*
X139634819Y-95569142D02*
X139634819Y-95664380D01*
X139634819Y-95664380D02*
X139587200Y-95807237D01*
X139587200Y-95807237D02*
X139491961Y-95902475D01*
X139491961Y-95902475D02*
X139396723Y-95950094D01*
X139396723Y-95950094D02*
X139206247Y-95997713D01*
X139206247Y-95997713D02*
X139063390Y-95997713D01*
X139063390Y-95997713D02*
X138872914Y-95950094D01*
X138872914Y-95950094D02*
X138777676Y-95902475D01*
X138777676Y-95902475D02*
X138682438Y-95807237D01*
X138682438Y-95807237D02*
X138634819Y-95664380D01*
X138634819Y-95664380D02*
X138634819Y-95569142D01*
X138634819Y-95569142D02*
X138682438Y-95426285D01*
X138682438Y-95426285D02*
X138730057Y-95378666D01*
X138634819Y-94473904D02*
X138634819Y-94950094D01*
X138634819Y-94950094D02*
X139111009Y-94997713D01*
X139111009Y-94997713D02*
X139063390Y-94950094D01*
X139063390Y-94950094D02*
X139015771Y-94854856D01*
X139015771Y-94854856D02*
X139015771Y-94616761D01*
X139015771Y-94616761D02*
X139063390Y-94521523D01*
X139063390Y-94521523D02*
X139111009Y-94473904D01*
X139111009Y-94473904D02*
X139206247Y-94426285D01*
X139206247Y-94426285D02*
X139444342Y-94426285D01*
X139444342Y-94426285D02*
X139539580Y-94473904D01*
X139539580Y-94473904D02*
X139587200Y-94521523D01*
X139587200Y-94521523D02*
X139634819Y-94616761D01*
X139634819Y-94616761D02*
X139634819Y-94854856D01*
X139634819Y-94854856D02*
X139587200Y-94950094D01*
X139587200Y-94950094D02*
X139539580Y-94997713D01*
X141328970Y-91352533D02*
X140852779Y-91685866D01*
X141328970Y-91923961D02*
X140328970Y-91923961D01*
X140328970Y-91923961D02*
X140328970Y-91543009D01*
X140328970Y-91543009D02*
X140376589Y-91447771D01*
X140376589Y-91447771D02*
X140424208Y-91400152D01*
X140424208Y-91400152D02*
X140519446Y-91352533D01*
X140519446Y-91352533D02*
X140662303Y-91352533D01*
X140662303Y-91352533D02*
X140757541Y-91400152D01*
X140757541Y-91400152D02*
X140805160Y-91447771D01*
X140805160Y-91447771D02*
X140852779Y-91543009D01*
X140852779Y-91543009D02*
X140852779Y-91923961D01*
X140662303Y-90495390D02*
X141328970Y-90495390D01*
X140281351Y-90733485D02*
X140995636Y-90971580D01*
X140995636Y-90971580D02*
X140995636Y-90352533D01*
X145165290Y-77438093D02*
X145165290Y-78153492D01*
X145165290Y-78153492D02*
X145117596Y-78296572D01*
X145117596Y-78296572D02*
X145022210Y-78391959D01*
X145022210Y-78391959D02*
X144879130Y-78439652D01*
X144879130Y-78439652D02*
X144783743Y-78439652D01*
X146166849Y-78439652D02*
X145594530Y-78439652D01*
X145880689Y-78439652D02*
X145880689Y-77438093D01*
X145880689Y-77438093D02*
X145785303Y-77581173D01*
X145785303Y-77581173D02*
X145689916Y-77676559D01*
X145689916Y-77676559D02*
X145594530Y-77724253D01*
X123237160Y-89241150D02*
X122760969Y-89574483D01*
X123237160Y-89812578D02*
X122237160Y-89812578D01*
X122237160Y-89812578D02*
X122237160Y-89431626D01*
X122237160Y-89431626D02*
X122284779Y-89336388D01*
X122284779Y-89336388D02*
X122332398Y-89288769D01*
X122332398Y-89288769D02*
X122427636Y-89241150D01*
X122427636Y-89241150D02*
X122570493Y-89241150D01*
X122570493Y-89241150D02*
X122665731Y-89288769D01*
X122665731Y-89288769D02*
X122713350Y-89336388D01*
X122713350Y-89336388D02*
X122760969Y-89431626D01*
X122760969Y-89431626D02*
X122760969Y-89812578D01*
X123237160Y-88764959D02*
X123237160Y-88574483D01*
X123237160Y-88574483D02*
X123189541Y-88479245D01*
X123189541Y-88479245D02*
X123141921Y-88431626D01*
X123141921Y-88431626D02*
X122999064Y-88336388D01*
X122999064Y-88336388D02*
X122808588Y-88288769D01*
X122808588Y-88288769D02*
X122427636Y-88288769D01*
X122427636Y-88288769D02*
X122332398Y-88336388D01*
X122332398Y-88336388D02*
X122284779Y-88384007D01*
X122284779Y-88384007D02*
X122237160Y-88479245D01*
X122237160Y-88479245D02*
X122237160Y-88669721D01*
X122237160Y-88669721D02*
X122284779Y-88764959D01*
X122284779Y-88764959D02*
X122332398Y-88812578D01*
X122332398Y-88812578D02*
X122427636Y-88860197D01*
X122427636Y-88860197D02*
X122665731Y-88860197D01*
X122665731Y-88860197D02*
X122760969Y-88812578D01*
X122760969Y-88812578D02*
X122808588Y-88764959D01*
X122808588Y-88764959D02*
X122856207Y-88669721D01*
X122856207Y-88669721D02*
X122856207Y-88479245D01*
X122856207Y-88479245D02*
X122808588Y-88384007D01*
X122808588Y-88384007D02*
X122760969Y-88336388D01*
X122760969Y-88336388D02*
X122665731Y-88288769D01*
X120738095Y-98454819D02*
X120738095Y-99264342D01*
X120738095Y-99264342D02*
X120785714Y-99359580D01*
X120785714Y-99359580D02*
X120833333Y-99407200D01*
X120833333Y-99407200D02*
X120928571Y-99454819D01*
X120928571Y-99454819D02*
X121119047Y-99454819D01*
X121119047Y-99454819D02*
X121214285Y-99407200D01*
X121214285Y-99407200D02*
X121261904Y-99359580D01*
X121261904Y-99359580D02*
X121309523Y-99264342D01*
X121309523Y-99264342D02*
X121309523Y-98454819D01*
X122214285Y-98454819D02*
X122023809Y-98454819D01*
X122023809Y-98454819D02*
X121928571Y-98502438D01*
X121928571Y-98502438D02*
X121880952Y-98550057D01*
X121880952Y-98550057D02*
X121785714Y-98692914D01*
X121785714Y-98692914D02*
X121738095Y-98883390D01*
X121738095Y-98883390D02*
X121738095Y-99264342D01*
X121738095Y-99264342D02*
X121785714Y-99359580D01*
X121785714Y-99359580D02*
X121833333Y-99407200D01*
X121833333Y-99407200D02*
X121928571Y-99454819D01*
X121928571Y-99454819D02*
X122119047Y-99454819D01*
X122119047Y-99454819D02*
X122214285Y-99407200D01*
X122214285Y-99407200D02*
X122261904Y-99359580D01*
X122261904Y-99359580D02*
X122309523Y-99264342D01*
X122309523Y-99264342D02*
X122309523Y-99026247D01*
X122309523Y-99026247D02*
X122261904Y-98931009D01*
X122261904Y-98931009D02*
X122214285Y-98883390D01*
X122214285Y-98883390D02*
X122119047Y-98835771D01*
X122119047Y-98835771D02*
X121928571Y-98835771D01*
X121928571Y-98835771D02*
X121833333Y-98883390D01*
X121833333Y-98883390D02*
X121785714Y-98931009D01*
X121785714Y-98931009D02*
X121738095Y-99026247D01*
X126238095Y-96166819D02*
X126238095Y-96976342D01*
X126238095Y-96976342D02*
X126285714Y-97071580D01*
X126285714Y-97071580D02*
X126333333Y-97119200D01*
X126333333Y-97119200D02*
X126428571Y-97166819D01*
X126428571Y-97166819D02*
X126619047Y-97166819D01*
X126619047Y-97166819D02*
X126714285Y-97119200D01*
X126714285Y-97119200D02*
X126761904Y-97071580D01*
X126761904Y-97071580D02*
X126809523Y-96976342D01*
X126809523Y-96976342D02*
X126809523Y-96166819D01*
X127238095Y-96262057D02*
X127285714Y-96214438D01*
X127285714Y-96214438D02*
X127380952Y-96166819D01*
X127380952Y-96166819D02*
X127619047Y-96166819D01*
X127619047Y-96166819D02*
X127714285Y-96214438D01*
X127714285Y-96214438D02*
X127761904Y-96262057D01*
X127761904Y-96262057D02*
X127809523Y-96357295D01*
X127809523Y-96357295D02*
X127809523Y-96452533D01*
X127809523Y-96452533D02*
X127761904Y-96595390D01*
X127761904Y-96595390D02*
X127190476Y-97166819D01*
X127190476Y-97166819D02*
X127809523Y-97166819D01*
X154944642Y-107359580D02*
X154897023Y-107407200D01*
X154897023Y-107407200D02*
X154754166Y-107454819D01*
X154754166Y-107454819D02*
X154658928Y-107454819D01*
X154658928Y-107454819D02*
X154516071Y-107407200D01*
X154516071Y-107407200D02*
X154420833Y-107311961D01*
X154420833Y-107311961D02*
X154373214Y-107216723D01*
X154373214Y-107216723D02*
X154325595Y-107026247D01*
X154325595Y-107026247D02*
X154325595Y-106883390D01*
X154325595Y-106883390D02*
X154373214Y-106692914D01*
X154373214Y-106692914D02*
X154420833Y-106597676D01*
X154420833Y-106597676D02*
X154516071Y-106502438D01*
X154516071Y-106502438D02*
X154658928Y-106454819D01*
X154658928Y-106454819D02*
X154754166Y-106454819D01*
X154754166Y-106454819D02*
X154897023Y-106502438D01*
X154897023Y-106502438D02*
X154944642Y-106550057D01*
X155897023Y-107454819D02*
X155325595Y-107454819D01*
X155611309Y-107454819D02*
X155611309Y-106454819D01*
X155611309Y-106454819D02*
X155516071Y-106597676D01*
X155516071Y-106597676D02*
X155420833Y-106692914D01*
X155420833Y-106692914D02*
X155325595Y-106740533D01*
X156277976Y-106550057D02*
X156325595Y-106502438D01*
X156325595Y-106502438D02*
X156420833Y-106454819D01*
X156420833Y-106454819D02*
X156658928Y-106454819D01*
X156658928Y-106454819D02*
X156754166Y-106502438D01*
X156754166Y-106502438D02*
X156801785Y-106550057D01*
X156801785Y-106550057D02*
X156849404Y-106645295D01*
X156849404Y-106645295D02*
X156849404Y-106740533D01*
X156849404Y-106740533D02*
X156801785Y-106883390D01*
X156801785Y-106883390D02*
X156230357Y-107454819D01*
X156230357Y-107454819D02*
X156849404Y-107454819D01*
%TO.C,TP5*%
D12*
X140700000Y-88000000D02*
G75*
G02*
X139300000Y-88000000I-700000J0D01*
G01*
X139300000Y-88000000D02*
G75*
G02*
X140700000Y-88000000I700000J0D01*
G01*
%TO.C,TP4*%
X137700000Y-114000000D02*
G75*
G02*
X136300000Y-114000000I-700000J0D01*
G01*
X136300000Y-114000000D02*
G75*
G02*
X137700000Y-114000000I700000J0D01*
G01*
%TO.C,TP3*%
X157200000Y-78500000D02*
G75*
G02*
X155800000Y-78500000I-700000J0D01*
G01*
X155800000Y-78500000D02*
G75*
G02*
X157200000Y-78500000I700000J0D01*
G01*
%TO.C,TP2*%
X153700000Y-78500000D02*
G75*
G02*
X152300000Y-78500000I-700000J0D01*
G01*
X152300000Y-78500000D02*
G75*
G02*
X153700000Y-78500000I700000J0D01*
G01*
%TO.C,TP1*%
X150200000Y-78500000D02*
G75*
G02*
X148800000Y-78500000I-700000J0D01*
G01*
X148800000Y-78500000D02*
G75*
G02*
X150200000Y-78500000I700000J0D01*
G01*
%TO.C,R3*%
X135800000Y-97865641D02*
X135800000Y-97558359D01*
X136560000Y-97865641D02*
X136560000Y-97558359D01*
%TO.C,C11*%
X139137399Y-93287619D02*
X139137399Y-93071947D01*
X139857399Y-93287619D02*
X139857399Y-93071947D01*
%TO.C,C22*%
X117607836Y-103640000D02*
X117392164Y-103640000D01*
X117607836Y-104360000D02*
X117392164Y-104360000D01*
%TO.C,R2*%
X144333641Y-104832000D02*
X144026359Y-104832000D01*
X144333641Y-105592000D02*
X144026359Y-105592000D01*
%TO.C,J5*%
X101127500Y-93140000D02*
X101127500Y-107860000D01*
X109667500Y-93140000D02*
X101127500Y-93140000D01*
X109667500Y-107860000D02*
X101127500Y-107860000D01*
X113367500Y-107860000D02*
X115347500Y-107860000D01*
X115347500Y-93140000D02*
X113367500Y-93140000D01*
X115347500Y-93140000D02*
X115347500Y-107860000D01*
X115727500Y-97000000D02*
X116227500Y-97500000D01*
X116227500Y-96500000D02*
X115727500Y-97000000D01*
X116227500Y-97500000D02*
X116227500Y-96500000D01*
%TO.C,C6*%
X144640000Y-107627836D02*
X144640000Y-107412164D01*
X145360000Y-107627836D02*
X145360000Y-107412164D01*
%TO.C,IC1*%
D13*
X133550000Y-100900000D02*
X143450000Y-100900000D01*
X133550000Y-103600000D02*
X133550000Y-100900000D01*
X134050000Y-104100000D02*
X133550000Y-103600000D01*
X143450000Y-100900000D02*
X143450000Y-104100000D01*
X143450000Y-104100000D02*
X134050000Y-104100000D01*
X133700000Y-104500000D02*
G75*
G02*
X133300000Y-104500000I-200000J0D01*
G01*
X133300000Y-104500000D02*
G75*
G02*
X133700000Y-104500000I200000J0D01*
G01*
%TO.C,C23*%
D12*
X118140580Y-104990000D02*
X117859420Y-104990000D01*
X118140580Y-106010000D02*
X117859420Y-106010000D01*
%TO.C,R12*%
X119120000Y-115846359D02*
X119120000Y-116153641D01*
X119880000Y-115846359D02*
X119880000Y-116153641D01*
%TO.C,U1*%
X141440000Y-83090000D02*
X141490000Y-83090000D01*
X141440000Y-84910000D02*
X141440000Y-83090000D01*
X141490000Y-84910000D02*
X141440000Y-84910000D01*
X144510000Y-83090000D02*
X144560000Y-83090000D01*
X144560000Y-83090000D02*
X144560000Y-84910000D01*
X144560000Y-84910000D02*
X144510000Y-84910000D01*
X144510000Y-82550000D02*
X144840000Y-82310000D01*
X144840000Y-82790000D01*
X144510000Y-82550000D01*
G36*
X144840000Y-82790000D02*
G01*
X144510000Y-82550000D01*
X144840000Y-82310000D01*
X144840000Y-82790000D01*
G37*
%TO.C,C13*%
X143640000Y-115892164D02*
X143640000Y-116107836D01*
X144360000Y-115892164D02*
X144360000Y-116107836D01*
%TO.C,C3*%
X136140000Y-82872164D02*
X136140000Y-83087836D01*
X136860000Y-82872164D02*
X136860000Y-83087836D01*
%TO.C,U3*%
X156452500Y-98990000D02*
X158272500Y-98990000D01*
X156452500Y-99040000D02*
X156452500Y-98990000D01*
X156452500Y-102110000D02*
X156452500Y-102060000D01*
X158272500Y-98990000D02*
X158272500Y-99040000D01*
X158272500Y-102060000D02*
X158272500Y-102110000D01*
X158272500Y-102110000D02*
X156452500Y-102110000D01*
X155912500Y-99040000D02*
X155672500Y-98710000D01*
X156152500Y-98710000D01*
X155912500Y-99040000D01*
G36*
X155912500Y-99040000D02*
G01*
X155672500Y-98710000D01*
X156152500Y-98710000D01*
X155912500Y-99040000D01*
G37*
%TO.C,D6*%
X120547341Y-82089484D02*
X120547341Y-84374484D01*
X122017341Y-82089484D02*
X120547341Y-82089484D01*
X122017341Y-84374484D02*
X122017341Y-82089484D01*
%TO.C,U5*%
X124390000Y-114452500D02*
X124440000Y-114452500D01*
X124390000Y-116272500D02*
X124390000Y-114452500D01*
X124440000Y-116272500D02*
X124390000Y-116272500D01*
X127460000Y-114452500D02*
X127510000Y-114452500D01*
X127510000Y-114452500D02*
X127510000Y-116272500D01*
X127510000Y-116272500D02*
X127460000Y-116272500D01*
X127460000Y-113912500D02*
X127790000Y-113672500D01*
X127790000Y-114152500D01*
X127460000Y-113912500D01*
G36*
X127790000Y-114152500D02*
G01*
X127460000Y-113912500D01*
X127790000Y-113672500D01*
X127790000Y-114152500D01*
G37*
%TO.C,C1*%
X128356583Y-76139143D02*
X128572255Y-76139143D01*
X128356583Y-76859143D02*
X128572255Y-76859143D01*
%TO.C,C2*%
X134640000Y-82892164D02*
X134640000Y-83107836D01*
X135360000Y-82892164D02*
X135360000Y-83107836D01*
%TO.C,C8*%
X132592164Y-97352000D02*
X132807836Y-97352000D01*
X132592164Y-98072000D02*
X132807836Y-98072000D01*
%TO.C,C14*%
X120640000Y-115892164D02*
X120640000Y-116107836D01*
X121360000Y-115892164D02*
X121360000Y-116107836D01*
%TO.C,R1*%
X128356359Y-74620000D02*
X128663641Y-74620000D01*
X128356359Y-75380000D02*
X128663641Y-75380000D01*
%TO.C,F1*%
X132102064Y-82090000D02*
X130897936Y-82090000D01*
X132102064Y-83910000D02*
X130897936Y-83910000D01*
%TO.C,C17*%
X157446920Y-94990000D02*
X157728080Y-94990000D01*
X157446920Y-96010000D02*
X157728080Y-96010000D01*
%TO.C,C10*%
X130762836Y-89447000D02*
X130547164Y-89447000D01*
X130762836Y-90167000D02*
X130547164Y-90167000D01*
%TO.C,D2*%
X118547341Y-86274484D02*
X118547341Y-88559484D01*
X118547341Y-88559484D02*
X120017341Y-88559484D01*
X120017341Y-88559484D02*
X120017341Y-86274484D01*
%TO.C,D3*%
X118525841Y-82067242D02*
X118525841Y-84352242D01*
X119995841Y-82067242D02*
X118525841Y-82067242D01*
X119995841Y-84352242D02*
X119995841Y-82067242D01*
%TO.C,C4*%
X140320000Y-97104164D02*
X140320000Y-97319836D01*
X141040000Y-97104164D02*
X141040000Y-97319836D01*
%TO.C,C16*%
X157999664Y-96640000D02*
X158215336Y-96640000D01*
X157999664Y-97360000D02*
X158215336Y-97360000D01*
%TO.C,J3*%
X142140000Y-118152500D02*
X142140000Y-120132500D01*
X142140000Y-118152500D02*
X156860000Y-118152500D01*
X142140000Y-123832500D02*
X142140000Y-132372500D01*
X142140000Y-132372500D02*
X156860000Y-132372500D01*
X145500000Y-117272500D02*
X146000000Y-117772500D01*
X146000000Y-117772500D02*
X146500000Y-117272500D01*
X146500000Y-117272500D02*
X145500000Y-117272500D01*
X156860000Y-120132500D02*
X156860000Y-118152500D01*
X156860000Y-123832500D02*
X156860000Y-132372500D01*
%TO.C,C20*%
X129333156Y-116385721D02*
X129333156Y-116601393D01*
X130053156Y-116385721D02*
X130053156Y-116601393D01*
%TO.C,R5*%
X137120000Y-93355641D02*
X137120000Y-93048359D01*
X137880000Y-93355641D02*
X137880000Y-93048359D01*
%TO.C,C19*%
X153990000Y-115859420D02*
X153990000Y-116140580D01*
X155010000Y-115859420D02*
X155010000Y-116140580D01*
%TO.C,D5*%
X116605124Y-82702223D02*
X116605124Y-84987223D01*
X116605124Y-84987223D02*
X118075124Y-84987223D01*
X118075124Y-84987223D02*
X118075124Y-82702223D01*
%TO.C,R6*%
X137846359Y-90620000D02*
X138153641Y-90620000D01*
X137846359Y-91380000D02*
X138153641Y-91380000D01*
%TO.C,J4*%
X118640000Y-118152500D02*
X118640000Y-120132500D01*
X118640000Y-118152500D02*
X133360000Y-118152500D01*
X118640000Y-123832500D02*
X118640000Y-132372500D01*
X118640000Y-132372500D02*
X133360000Y-132372500D01*
X122000000Y-117272500D02*
X122500000Y-117772500D01*
X122500000Y-117772500D02*
X123000000Y-117272500D01*
X123000000Y-117272500D02*
X122000000Y-117272500D01*
X133360000Y-120132500D02*
X133360000Y-118152500D01*
X133360000Y-123832500D02*
X133360000Y-132372500D01*
%TO.C,C18*%
X152640000Y-116392164D02*
X152640000Y-116607836D01*
X153360000Y-116392164D02*
X153360000Y-116607836D01*
%TO.C,J2*%
X159272500Y-103500000D02*
X159272500Y-104500000D01*
X159272500Y-104500000D02*
X159772500Y-104000000D01*
X159772500Y-104000000D02*
X159272500Y-103500000D01*
X160152500Y-107860000D02*
X160152500Y-93140000D01*
X160152500Y-107860000D02*
X162132500Y-107860000D01*
X162132500Y-93140000D02*
X160152500Y-93140000D01*
X165832500Y-93140000D02*
X174372500Y-93140000D01*
X165832500Y-107860000D02*
X174372500Y-107860000D01*
X174372500Y-107860000D02*
X174372500Y-93140000D01*
%TO.C,R8*%
X120902341Y-86420843D02*
X120902341Y-86728125D01*
X121662341Y-86420843D02*
X121662341Y-86728125D01*
%TO.C,U4*%
X147990000Y-114227500D02*
X148040000Y-114227500D01*
X147990000Y-116047500D02*
X147990000Y-114227500D01*
X148040000Y-116047500D02*
X147990000Y-116047500D01*
X151060000Y-114227500D02*
X151110000Y-114227500D01*
X151110000Y-114227500D02*
X151110000Y-116047500D01*
X151110000Y-116047500D02*
X151060000Y-116047500D01*
X151060000Y-113687500D02*
X151390000Y-113447500D01*
X151390000Y-113927500D01*
X151060000Y-113687500D01*
G36*
X151390000Y-113927500D02*
G01*
X151060000Y-113687500D01*
X151390000Y-113447500D01*
X151390000Y-113927500D01*
G37*
%TO.C,R10*%
X157933859Y-105120000D02*
X158241141Y-105120000D01*
X157933859Y-105880000D02*
X158241141Y-105880000D01*
%TO.C,R13*%
X117643641Y-93620000D02*
X117336359Y-93620000D01*
X117643641Y-94380000D02*
X117336359Y-94380000D01*
%TO.C,D4*%
X116585117Y-85568549D02*
X116585117Y-87853549D01*
X118055117Y-85568549D02*
X116585117Y-85568549D01*
X118055117Y-87853549D02*
X118055117Y-85568549D01*
%TO.C,C9*%
X132572164Y-98852000D02*
X132787836Y-98852000D01*
X132572164Y-99572000D02*
X132787836Y-99572000D01*
%TO.C,C21*%
X130683156Y-115852977D02*
X130683156Y-116134137D01*
X131703156Y-115852977D02*
X131703156Y-116134137D01*
%TO.C,D1*%
X134010000Y-84350000D02*
X128500000Y-84350000D01*
X134010000Y-87650000D02*
X128500000Y-87650000D01*
X134010000Y-87650000D02*
X134010000Y-84350000D01*
%TO.C,R7*%
X137346359Y-89120000D02*
X137653641Y-89120000D01*
X137346359Y-89880000D02*
X137653641Y-89880000D01*
%TO.C,Y1*%
X126020000Y-102552000D02*
X126420000Y-102552000D01*
X126420000Y-102552000D02*
X126420000Y-101872000D01*
X128340000Y-100352000D02*
X130020000Y-100352000D01*
X128340000Y-104072000D02*
X128340000Y-104572000D01*
X130020000Y-104072000D02*
X128340000Y-104072000D01*
X131940000Y-101872000D02*
X131940000Y-102552000D01*
%TO.C,R11*%
X142120000Y-115846359D02*
X142120000Y-116153641D01*
X142880000Y-115846359D02*
X142880000Y-116153641D01*
%TO.C,C15*%
X117597836Y-95140000D02*
X117382164Y-95140000D01*
X117597836Y-95860000D02*
X117382164Y-95860000D01*
%TO.C,C7*%
X143140000Y-107627836D02*
X143140000Y-107412164D01*
X143860000Y-107627836D02*
X143860000Y-107412164D01*
%TO.C,C5*%
X138820000Y-97104164D02*
X138820000Y-97319836D01*
X139540000Y-97104164D02*
X139540000Y-97319836D01*
%TO.C,R4*%
X140300000Y-93355641D02*
X140300000Y-93048359D01*
X141060000Y-93355641D02*
X141060000Y-93048359D01*
%TO.C,J1*%
D14*
X131880000Y-64840000D02*
X131880000Y-73100000D01*
X131880000Y-81340000D02*
X131880000Y-76970000D01*
X144080000Y-64840000D02*
X131880000Y-64840000D01*
X144080000Y-73100000D02*
X144080000Y-64840000D01*
X144080000Y-76970000D02*
X144080000Y-81340000D01*
X144080000Y-81340000D02*
X131880000Y-81340000D01*
X131558937Y-79710000D02*
G75*
G02*
X130901063Y-79710000I-328937J0D01*
G01*
X130901063Y-79710000D02*
G75*
G02*
X131558937Y-79710000I328937J0D01*
G01*
%TO.C,R9*%
D12*
X122402341Y-86420843D02*
X122402341Y-86728125D01*
X123162341Y-86420843D02*
X123162341Y-86728125D01*
%TO.C,U6*%
X117227500Y-98890000D02*
X119047500Y-98890000D01*
X117227500Y-98940000D02*
X117227500Y-98890000D01*
X117227500Y-102010000D02*
X117227500Y-101960000D01*
X119047500Y-98890000D02*
X119047500Y-98940000D01*
X119047500Y-101960000D02*
X119047500Y-102010000D01*
X119047500Y-102010000D02*
X117227500Y-102010000D01*
X119587500Y-101960000D02*
X119827500Y-102290000D01*
X119347500Y-102290000D01*
X119587500Y-101960000D01*
G36*
X119827500Y-102290000D02*
G01*
X119347500Y-102290000D01*
X119587500Y-101960000D01*
X119827500Y-102290000D01*
G37*
%TO.C,U2*%
X128620000Y-90652000D02*
X132740000Y-90652000D01*
X128620000Y-90747000D02*
X128620000Y-90652000D01*
X128620000Y-95772000D02*
X128620000Y-95677000D01*
X132740000Y-90652000D02*
X132740000Y-90747000D01*
X132740000Y-95677000D02*
X132740000Y-95772000D01*
X132740000Y-95772000D02*
X128620000Y-95772000D01*
X128080000Y-90742000D02*
X127840000Y-90412000D01*
X128320000Y-90412000D01*
X128080000Y-90742000D01*
G36*
X128080000Y-90742000D02*
G01*
X127840000Y-90412000D01*
X128320000Y-90412000D01*
X128080000Y-90742000D01*
G37*
%TO.C,C12*%
X157999664Y-106640000D02*
X158215336Y-106640000D01*
X157999664Y-107360000D02*
X158215336Y-107360000D01*
%TD*%
M02*
