%TF.GenerationSoftware,KiCad,Pcbnew,10.0.3*%
%TF.CreationDate,2026-05-23T11:56:39-04:00*%
%TF.ProjectId,usbhub,75736268-7562-42e6-9b69-6361645f7063,1.0*%
%TF.SameCoordinates,Original*%
%TF.FileFunction,Soldermask,Top*%
%TF.FilePolarity,Negative*%
%FSLAX46Y46*%
G04 Gerber Fmt 4.6, Leading zero omitted, Abs format (unit mm)*
G04 Created by KiCad (PCBNEW 10.0.3) date 2026-05-23 11:56:39*
%MOMM*%
%LPD*%
G01*
G04 APERTURE LIST*
G04 Aperture macros list*
%AMRoundRect*
0 Rectangle with rounded corners*
0 $1 Rounding radius*
0 $2 $3 $4 $5 $6 $7 $8 $9 X,Y pos of 4 corners*
0 Add a 4 corners polygon primitive as box body*
4,1,4,$2,$3,$4,$5,$6,$7,$8,$9,$2,$3,0*
0 Add four circle primitives for the rounded corners*
1,1,$1+$1,$2,$3*
1,1,$1+$1,$4,$5*
1,1,$1+$1,$6,$7*
1,1,$1+$1,$8,$9*
0 Add four rect primitives between the rounded corners*
20,1,$1+$1,$2,$3,$4,$5,0*
20,1,$1+$1,$4,$5,$6,$7,0*
20,1,$1+$1,$6,$7,$8,$9,0*
20,1,$1+$1,$8,$9,$2,$3,0*%
G04 Aperture macros list end*
%ADD10C,1.000000*%
%ADD11RoundRect,0.135000X0.185000X-0.135000X0.185000X0.135000X-0.185000X0.135000X-0.185000X-0.135000X0*%
%ADD12RoundRect,0.140000X0.170000X-0.140000X0.170000X0.140000X-0.170000X0.140000X-0.170000X-0.140000X0*%
%ADD13RoundRect,0.140000X0.140000X0.170000X-0.140000X0.170000X-0.140000X-0.170000X0.140000X-0.170000X0*%
%ADD14RoundRect,0.135000X0.135000X0.185000X-0.135000X0.185000X-0.135000X-0.185000X0.135000X-0.185000X0*%
%ADD15C,2.200000*%
%ADD16RoundRect,0.250000X-0.512000X0.512000X-0.512000X-0.512000X0.512000X-0.512000X0.512000X0.512000X0*%
%ADD17C,1.524000*%
%ADD18C,3.500000*%
%ADD19RoundRect,0.050000X-0.220000X-0.762500X0.220000X-0.762500X0.220000X0.762500X-0.220000X0.762500X0*%
%ADD20RoundRect,0.225000X0.225000X0.250000X-0.225000X0.250000X-0.225000X-0.250000X0.225000X-0.250000X0*%
%ADD21RoundRect,0.135000X-0.185000X0.135000X-0.185000X-0.135000X0.185000X-0.135000X0.185000X0.135000X0*%
%ADD22RoundRect,0.150000X-0.150000X0.512500X-0.150000X-0.512500X0.150000X-0.512500X0.150000X0.512500X0*%
%ADD23RoundRect,0.140000X-0.170000X0.140000X-0.170000X-0.140000X0.170000X-0.140000X0.170000X0.140000X0*%
%ADD24RoundRect,0.150000X-0.512500X-0.150000X0.512500X-0.150000X0.512500X0.150000X-0.512500X0.150000X0*%
%ADD25RoundRect,0.218750X-0.256250X0.218750X-0.256250X-0.218750X0.256250X-0.218750X0.256250X0.218750X0*%
%ADD26RoundRect,0.140000X-0.140000X-0.170000X0.140000X-0.170000X0.140000X0.170000X-0.140000X0.170000X0*%
%ADD27RoundRect,0.135000X-0.135000X-0.185000X0.135000X-0.185000X0.135000X0.185000X-0.135000X0.185000X0*%
%ADD28RoundRect,0.250000X0.375000X0.625000X-0.375000X0.625000X-0.375000X-0.625000X0.375000X-0.625000X0*%
%ADD29RoundRect,0.225000X-0.225000X-0.250000X0.225000X-0.250000X0.225000X0.250000X-0.225000X0.250000X0*%
%ADD30RoundRect,0.218750X0.256250X-0.218750X0.256250X0.218750X-0.256250X0.218750X-0.256250X-0.218750X0*%
%ADD31RoundRect,0.250000X-0.512000X-0.512000X0.512000X-0.512000X0.512000X0.512000X-0.512000X0.512000X0*%
%ADD32RoundRect,0.225000X-0.250000X0.225000X-0.250000X-0.225000X0.250000X-0.225000X0.250000X0.225000X0*%
%ADD33RoundRect,0.250000X0.512000X-0.512000X0.512000X0.512000X-0.512000X0.512000X-0.512000X-0.512000X0*%
%ADD34RoundRect,0.250000X1.000000X0.650000X-1.000000X0.650000X-1.000000X-0.650000X1.000000X-0.650000X0*%
%ADD35RoundRect,0.250000X-0.650000X-0.350000X0.650000X-0.350000X0.650000X0.350000X-0.650000X0.350000X0*%
%ADD36RoundRect,0.102000X0.714000X0.714000X-0.714000X0.714000X-0.714000X-0.714000X0.714000X-0.714000X0*%
%ADD37C,1.632000*%
%ADD38C,3.520000*%
%ADD39RoundRect,0.150000X0.512500X0.150000X-0.512500X0.150000X-0.512500X-0.150000X0.512500X-0.150000X0*%
%ADD40RoundRect,0.150000X-0.825000X-0.150000X0.825000X-0.150000X0.825000X0.150000X-0.825000X0.150000X0*%
%ADD41R,2.290000X3.000000*%
G04 APERTURE END LIST*
D10*
%TO.C,TP5*%
X140000000Y-88000000D03*
%TD*%
%TO.C,TP4*%
X137000000Y-114000000D03*
%TD*%
%TO.C,TP3*%
X156500000Y-78500000D03*
%TD*%
%TO.C,TP2*%
X153000000Y-78500000D03*
%TD*%
%TO.C,TP1*%
X149500000Y-78500000D03*
%TD*%
D11*
%TO.C,R3*%
X136180000Y-98222000D03*
X136180000Y-97202000D03*
%TD*%
D12*
%TO.C,C11*%
X139497399Y-93659783D03*
X139497399Y-92699783D03*
%TD*%
D13*
%TO.C,C22*%
X117980000Y-104000000D03*
X117020000Y-104000000D03*
%TD*%
D14*
%TO.C,R2*%
X144690000Y-105212000D03*
X143670000Y-105212000D03*
%TD*%
D15*
%TO.C,H1*%
X112000000Y-75000000D03*
%TD*%
D16*
%TO.C,J5*%
X114227500Y-97000000D03*
D17*
X114227500Y-99500000D03*
X114227500Y-101500000D03*
X114227500Y-104000000D03*
D18*
X111517500Y-93825000D03*
X111517500Y-107175000D03*
%TD*%
D12*
%TO.C,C6*%
X145000000Y-108000000D03*
X145000000Y-107040000D03*
%TD*%
D19*
%TO.C,IC1*%
X134340000Y-105212000D03*
X134980000Y-105212000D03*
X135620000Y-105212000D03*
X136260000Y-105212000D03*
X136900000Y-105212000D03*
X137540000Y-105212000D03*
X138180000Y-105212000D03*
X138820000Y-105212000D03*
X139460000Y-105212000D03*
X140100000Y-105212000D03*
X140740000Y-105212000D03*
X141380000Y-105212000D03*
X142020000Y-105212000D03*
X142660000Y-105212000D03*
X142660000Y-99788000D03*
X142020000Y-99788000D03*
X141380000Y-99788000D03*
X140740000Y-99788000D03*
X140100000Y-99788000D03*
X139460000Y-99788000D03*
X138820000Y-99788000D03*
X138180000Y-99788000D03*
X137540000Y-99788000D03*
X136900000Y-99788000D03*
X136260000Y-99788000D03*
X135620000Y-99788000D03*
X134980000Y-99788000D03*
X134340000Y-99788000D03*
%TD*%
D15*
%TO.C,H4*%
X163500000Y-121500000D03*
%TD*%
D20*
%TO.C,C23*%
X118775000Y-105500000D03*
X117225000Y-105500000D03*
%TD*%
D21*
%TO.C,R12*%
X119500000Y-115490000D03*
X119500000Y-116510000D03*
%TD*%
D22*
%TO.C,U1*%
X143950000Y-82862500D03*
X143000000Y-82862500D03*
X142050000Y-82862500D03*
X142050000Y-85137500D03*
X143000000Y-85137500D03*
X143950000Y-85137500D03*
%TD*%
D15*
%TO.C,H2*%
X163500000Y-75000000D03*
%TD*%
D23*
%TO.C,C13*%
X144000000Y-115520000D03*
X144000000Y-116480000D03*
%TD*%
%TO.C,C3*%
X136500000Y-82500000D03*
X136500000Y-83460000D03*
%TD*%
D24*
%TO.C,U3*%
X156225000Y-99600000D03*
X156225000Y-100550000D03*
X156225000Y-101500000D03*
X158500000Y-101500000D03*
X158500000Y-100550000D03*
X158500000Y-99600000D03*
%TD*%
D25*
%TO.C,D6*%
X121282341Y-82786984D03*
X121282341Y-84361984D03*
%TD*%
D22*
%TO.C,U5*%
X126900000Y-114225000D03*
X125950000Y-114225000D03*
X125000000Y-114225000D03*
X125000000Y-116500000D03*
X125950000Y-116500000D03*
X126900000Y-116500000D03*
%TD*%
D26*
%TO.C,C1*%
X127984419Y-76499143D03*
X128944419Y-76499143D03*
%TD*%
D23*
%TO.C,C2*%
X135000000Y-82520000D03*
X135000000Y-83480000D03*
%TD*%
D26*
%TO.C,C8*%
X132220000Y-97712000D03*
X133180000Y-97712000D03*
%TD*%
D23*
%TO.C,C14*%
X121000000Y-115520000D03*
X121000000Y-116480000D03*
%TD*%
D27*
%TO.C,R1*%
X128000000Y-75000000D03*
X129020000Y-75000000D03*
%TD*%
D28*
%TO.C,F1*%
X132900000Y-83000000D03*
X130100000Y-83000000D03*
%TD*%
D29*
%TO.C,C17*%
X156812500Y-95500000D03*
X158362500Y-95500000D03*
%TD*%
D13*
%TO.C,C10*%
X131135000Y-89807000D03*
X130175000Y-89807000D03*
%TD*%
D30*
%TO.C,D2*%
X119282341Y-87861984D03*
X119282341Y-86286984D03*
%TD*%
D25*
%TO.C,D3*%
X119260841Y-82764742D03*
X119260841Y-84339742D03*
%TD*%
D23*
%TO.C,C4*%
X140680000Y-96732000D03*
X140680000Y-97692000D03*
%TD*%
D26*
%TO.C,C16*%
X157627500Y-97000000D03*
X158587500Y-97000000D03*
%TD*%
D31*
%TO.C,J3*%
X146000000Y-119272500D03*
D17*
X148500000Y-119272500D03*
X150500000Y-119272500D03*
X153000000Y-119272500D03*
D18*
X142825000Y-121982500D03*
X156175000Y-121982500D03*
%TD*%
D23*
%TO.C,C20*%
X129693156Y-116013557D03*
X129693156Y-116973557D03*
%TD*%
D11*
%TO.C,R5*%
X137500000Y-93712000D03*
X137500000Y-92692000D03*
%TD*%
D32*
%TO.C,C19*%
X154500000Y-115225000D03*
X154500000Y-116775000D03*
%TD*%
D30*
%TO.C,D5*%
X117340124Y-84289723D03*
X117340124Y-82714723D03*
%TD*%
D27*
%TO.C,R6*%
X137490000Y-91000000D03*
X138510000Y-91000000D03*
%TD*%
D31*
%TO.C,J4*%
X122500000Y-119272500D03*
D17*
X125000000Y-119272500D03*
X127000000Y-119272500D03*
X129500000Y-119272500D03*
D18*
X119325000Y-121982500D03*
X132675000Y-121982500D03*
%TD*%
D23*
%TO.C,C18*%
X153000000Y-116020000D03*
X153000000Y-116980000D03*
%TD*%
D33*
%TO.C,J2*%
X161272500Y-104000000D03*
D17*
X161272500Y-101500000D03*
X161272500Y-99500000D03*
X161272500Y-97000000D03*
D18*
X163982500Y-107175000D03*
X163982500Y-93825000D03*
%TD*%
D21*
%TO.C,R8*%
X121282341Y-86064484D03*
X121282341Y-87084484D03*
%TD*%
D22*
%TO.C,U4*%
X150500000Y-114000000D03*
X149550000Y-114000000D03*
X148600000Y-114000000D03*
X148600000Y-116275000D03*
X149550000Y-116275000D03*
X150500000Y-116275000D03*
%TD*%
D27*
%TO.C,R10*%
X157577500Y-105500000D03*
X158597500Y-105500000D03*
%TD*%
D14*
%TO.C,R13*%
X118000000Y-94000000D03*
X116980000Y-94000000D03*
%TD*%
D25*
%TO.C,D4*%
X117320117Y-86266049D03*
X117320117Y-87841049D03*
%TD*%
D26*
%TO.C,C9*%
X132200000Y-99212000D03*
X133160000Y-99212000D03*
%TD*%
D32*
%TO.C,C21*%
X131193156Y-115218557D03*
X131193156Y-116768557D03*
%TD*%
D34*
%TO.C,D1*%
X132500000Y-86000000D03*
X128500000Y-86000000D03*
%TD*%
D27*
%TO.C,R7*%
X136990000Y-89500000D03*
X138010000Y-89500000D03*
%TD*%
D35*
%TO.C,Y1*%
X127180000Y-103412000D03*
X131180000Y-103412000D03*
X131180000Y-101012000D03*
X127180000Y-101012000D03*
%TD*%
D21*
%TO.C,R11*%
X142500000Y-115490000D03*
X142500000Y-116510000D03*
%TD*%
D13*
%TO.C,C15*%
X117970000Y-95500000D03*
X117010000Y-95500000D03*
%TD*%
D12*
%TO.C,C7*%
X143500000Y-108000000D03*
X143500000Y-107040000D03*
%TD*%
D23*
%TO.C,C5*%
X139180000Y-96732000D03*
X139180000Y-97692000D03*
%TD*%
D11*
%TO.C,R4*%
X140680000Y-93712000D03*
X140680000Y-92692000D03*
%TD*%
D36*
%TO.C,J1*%
X136730000Y-79710000D03*
D37*
X139230000Y-79710000D03*
X139230000Y-77710000D03*
X136730000Y-77710000D03*
D38*
X144000000Y-75000000D03*
X131960000Y-75000000D03*
%TD*%
D21*
%TO.C,R9*%
X122782341Y-86064484D03*
X122782341Y-87084484D03*
%TD*%
D15*
%TO.C,H3*%
X112000000Y-121500000D03*
%TD*%
D39*
%TO.C,U6*%
X119275000Y-101400000D03*
X119275000Y-100450000D03*
X119275000Y-99500000D03*
X117000000Y-99500000D03*
X117000000Y-100450000D03*
X117000000Y-101400000D03*
%TD*%
D40*
%TO.C,U2*%
X128205000Y-91307000D03*
X128205000Y-92577000D03*
X128205000Y-93847000D03*
X128205000Y-95117000D03*
X133155000Y-95117000D03*
X133155000Y-93847000D03*
X133155000Y-92577000D03*
X133155000Y-91307000D03*
D41*
X130680000Y-93212000D03*
%TD*%
D26*
%TO.C,C12*%
X157627500Y-107000000D03*
X158587500Y-107000000D03*
%TD*%
M02*
