M48
; DRILL file KiCad 10.0.3 date 2026-05-23T11:58:23
; FORMAT={-:-/ absolute / metric / decimal}
; #@! TF.CreationDate,2026-05-23T11:58:23-04:00
; #@! TF.GenerationSoftware,Kicad,Pcbnew,10.0.3
; #@! TF.FileFunction,Plated,1,4,PTH
FMAT,2
METRIC
; #@! TA.AperFunction,Plated,PTH,ViaDrill
T1C0.300
; #@! TA.AperFunction,Plated,PTH,ComponentDrill
T2C0.920
; #@! TA.AperFunction,Plated,PTH,ComponentDrill
T3C2.300
%
G90
G05
T1
X111.0Y-80.0
X111.0Y-83.0
X111.0Y-86.0
X111.0Y-89.0
X111.0Y-98.0
X111.0Y-102.0
X111.0Y-111.0
X111.0Y-114.0
X111.0Y-117.0
X114.373Y-106.042
X116.0Y-123.0
X117.313Y-74.079
X117.97Y-95.5
X118.0Y-94.0
X118.0Y-104.0
X118.775Y-105.5
X119.261Y-82.765
X119.307Y-100.484
X119.5Y-115.49
X119.925Y-102.348
X121.0Y-74.0
X121.029Y-115.483
X121.282Y-84.362
X121.289Y-87.084
X122.0Y-102.0
X122.782Y-87.084
X125.0Y-74.0
X125.0Y-123.0
X125.96Y-114.279
X127.19Y-101.011
X127.984Y-76.499
X128.0Y-75.0
X128.168Y-107.98
X128.188Y-111.132
X128.209Y-96.871
X129.0Y-123.0
X129.688Y-116.05
X130.18Y-89.828
X131.211Y-103.412
X131.234Y-115.27
X131.692Y-118.959
X132.187Y-99.201
X132.207Y-97.72
X133.155Y-91.307
X134.0Y-80.0
X134.0Y-107.0
X134.26Y-105.212
X134.54Y-77.656
X135.0Y-83.48
X135.0Y-91.0
X135.226Y-93.797
X136.0Y-74.0
X136.19Y-97.221
X136.48Y-83.48
X137.0Y-114.0
X137.5Y-92.692
X137.5Y-93.712
X137.985Y-76.513
X138.0Y-123.0
X138.009Y-89.517
X138.062Y-107.92
X138.1Y-96.0
X138.51Y-91.0
X138.814Y-102.213
X139.0Y-82.0
X139.2Y-96.73
X139.479Y-93.733
X140.0Y-74.0
X140.102Y-102.0
X140.68Y-92.692
X140.69Y-96.77
X140.786Y-80.21
X140.815Y-79.328
X141.48Y-107.134
X141.951Y-87.169
X142.026Y-78.526
X142.036Y-103.314
X142.474Y-115.459
X143.0Y-83.0
X143.436Y-97.778
X143.489Y-108.01
X143.946Y-87.184
X144.015Y-115.479
X144.142Y-80.597
X144.672Y-105.213
X145.0Y-108.0
X146.687Y-108.83
X147.602Y-113.031
X148.0Y-123.0
X148.158Y-110.42
X149.0Y-74.0
X149.558Y-114.05
X152.0Y-123.0
X153.0Y-74.0
X153.0Y-78.5
X153.0Y-116.0
X153.095Y-100.426
X154.445Y-102.287
X154.5Y-115.225
X154.936Y-118.824
X156.265Y-100.595
X156.5Y-78.5
X156.812Y-95.5
X157.577Y-105.54
X157.627Y-107.0
X157.65Y-96.99
X158.0Y-74.0
X160.0Y-122.0
X161.195Y-95.219
X164.0Y-79.0
X164.0Y-83.0
X164.0Y-87.0
X164.0Y-90.0
X164.0Y-111.0
X164.0Y-114.0
X164.0Y-117.0
X165.0Y-97.897
X165.0Y-102.0
T2
X114.227Y-97.0
X114.227Y-99.5
X114.227Y-101.5
X114.227Y-104.0
X122.5Y-119.272
X125.0Y-119.272
X127.0Y-119.272
X129.5Y-119.272
X136.73Y-77.71
X136.73Y-79.71
X139.23Y-77.71
X139.23Y-79.71
X146.0Y-119.272
X148.5Y-119.272
X150.5Y-119.272
X153.0Y-119.272
X161.272Y-97.0
X161.272Y-99.5
X161.272Y-101.5
X161.272Y-104.0
T3
X111.517Y-93.825
X111.517Y-107.175
X119.325Y-121.982
X131.96Y-75.0
X132.675Y-121.982
X142.825Y-121.982
X144.0Y-75.0
X156.175Y-121.982
X163.982Y-93.825
X163.982Y-107.175
M30
